<svg width="65" height="80" xmlns="http://www.w3.org/2000/svg"><g transform="translate(0 .286)" stroke-width="3" fill="none" fill-rule="evenodd"><circle stroke="#FFA700" fill="#FFF" transform="rotate(-45 32.421 20.013)" cx="32.421" cy="20.013" r="6.5"/><path d="M22.712 52.145c.631 2.618 1.216 4.419 1.754 5.404l16.38-.016c.54-.974 1.124-2.763 1.754-5.368l-19.888-.02zm21.234-4.184c.862-4.113 3.278-12.57 3.19-16.863-.198-9.573-2.905-19.026-9.165-25.286a530.576 530.576 0 01-3.567-3.61h-3.523a290.892 290.892 0 01-3.532 3.61c-6.258 6.257-8.964 15.71-9.16 25.283-.087 4.32 2.336 12.8 3.21 16.934l22.547-.068zM14.945 41.714H7.236v-6.35l1.688-1.688-3.462-3.462L2 33.676v14.26l14.067.007zM50.122 41.714h7.709v-6.35l-1.688-1.688 3.462-3.462 3.462 3.462v14.26L49 47.943z" stroke="#1F61DC"/><path stroke="#C9D9F7" d="M38.421 62.527l5.143 10.902M32.421 62.527v17.187M25.85 62.527l-5.143 10.902M24 34.286h17.878"/></g></svg>