<svg xmlns="http://www.w3.org/2000/svg" xmlns:xlink="http://www.w3.org/1999/xlink" width="72px" height="72px" viewBox="0 0 72 72"><title>ACA Compliance</title><desc>Created with Sketch.</desc><g id="Page-1" stroke="none" stroke-width="1" fill="none" fill-rule="evenodd"><g id="ACA-Compliance" transform="translate(1.000000, 0.000000)"><g id="Path"><path d="M12.75,62.5 L20.25,62.5" stroke="#C9D9F7" stroke-width="3"></path><path d="M49.75,62.5 L57.25,62.5" stroke="#C9D9F7" stroke-width="3"></path><path d="M24,36 L46,36" stroke="#C9D9F7" stroke-width="3"></path><polygon stroke="#1F61DC" stroke-width="3" points="62.5 62.5 62.5 36.84 62.5 34.5 48.5 28.5 21.5 28.5 7.5 34.5 7.5 62.5 0.5 62.5 0.5 70.5 69.5 70.5 69.5 62.5"></polygon><path d="M21.4999963,24.4999963 L21.4999963,20.9999963 C21.4973443,17.4187639 22.9188088,13.9834428 25.4511258,11.4511258 C27.9834428,8.91880879 31.4187639,7.49734428 34.9999963,7.49999629 L34.9999963,7.49999629 C38.5812361,7.49734428 42.0165572,8.91880879 44.5488742,11.4511258 C47.0811912,13.9834428 48.5026557,17.4187639 48.4999963,20.9999963 L48.4999963,24.4999963" stroke="#1F61DC" stroke-width="3"></path><path d="M62.5,34.5 L69.5,37.5" stroke="#1F61DC" stroke-width="3"></path><path d="M7.5,34.5 L0.5,37.5" stroke="#1F61DC" stroke-width="3"></path><path d="M35,7 L35,0" stroke="#1F61DC" stroke-width="3"></path><polyline stroke="#FFA700" stroke-width="3" points="18.5 46.5 35 42.5 51.5 46.5"></polyline><path d="M35,42 L35,64" stroke="#FFA700" stroke-width="3"></path><path d="M25.5,45 L25.5,64" stroke="#FFA700" stroke-width="3"></path><path d="M44.5,46 L44.5,64" stroke="#FFA700" stroke-width="3"></path></g></g></g></svg>