<svg xmlns="http://www.w3.org/2000/svg" xmlns:xlink="http://www.w3.org/1999/xlink" width="72px" height="72px" viewBox="0 0 72 72"><title>All in one place</title><desc>Created with Sketch.</desc><g id="Page-1" stroke="none" stroke-width="1" fill="none" fill-rule="evenodd"><g id="All-in-one-place" transform="translate(1.000000, 1.000000)"><g><polyline id="Path" stroke="#1F61DC" stroke-width="3" points="49.5 46 49.5 69.5 0.5 69.5 0.5 8.5 27 8.5"></polyline><path d="M69.5,23.93 L69.5,17.07 L63.78,16.42 C63.4674546,15.3305025 63.0312851,14.2803405 62.48,13.29 L66.07,8.78 L61.22,3.93 L56.71,7.52 C55.7196595,6.96871492 54.6694975,6.5325454 53.58,6.22 L52.93,0.5 L46.07,0.5 L45.42,6.22 C44.3305025,6.5325454 43.2803405,6.96871492 42.29,7.52 L37.78,3.93 L32.93,8.78 L36.52,13.29 C35.9687149,14.2803405 35.5325454,15.3305025 35.22,16.42 L29.5,17.07 L29.5,23.93 L35.22,24.58 C35.5325454,25.6694975 35.9687149,26.7196595 36.52,27.71 L32.93,32.22 L37.78,37.07 L42.29,33.48 C43.2803405,34.0312851 44.3305025,34.4674546 45.42,34.78 L46.07,40.5 L52.93,40.5 L53.58,34.78 C54.6694975,34.4674546 55.7196595,34.0312851 56.71,33.48 L61.22,37.07 L66.07,32.22 L62.48,27.71 C63.0312851,26.7196595 63.4674546,25.6694975 63.78,24.58 L69.5,23.93 Z" id="Path" stroke="#1F61DC" stroke-width="3"></path><circle id="Oval" stroke="#FFA700" stroke-width="3" cx="49.5" cy="20.5" r="6.86"></circle><circle id="Oval" stroke="#1F61DC" stroke-width="3" cx="25.5" cy="46.25" r="5.25"></circle><path d="M15,62 C15,56.2010101 19.7010101,51.5 25.5,51.5 C31.2989899,51.5 36,56.2010101 36,62" id="Path" stroke="#1F61DC" stroke-width="3"></path><rect id="Rectangle" fill="#C9D9F7" fill-rule="nonzero" x="8" y="19" width="12" height="3"></rect><rect id="Rectangle" fill="#C9D9F7" fill-rule="nonzero" x="8" y="28" width="15" height="3"></rect></g></g></g></svg>