<svg xmlns="http://www.w3.org/2000/svg" xmlns:xlink="http://www.w3.org/1999/xlink" width="72px" height="72px" viewBox="0 0 72 72"><title>Benefits</title><desc>Created with Sketch.</desc><g id="Page-1" stroke="none" stroke-width="1" fill="none" fill-rule="evenodd"><g id="Benefits" transform="translate(1.000000, 1.000000)"><g><rect id="Rectangle" stroke="#1F61DC" stroke-width="3" x="0.5" y="16.5" width="69" height="10"></rect><polyline id="Path" stroke="#1F61DC" stroke-width="3" points="63 31.5 63 69.5 7 69.5 7 31.5"></polyline><path d="M17,62.5 L53,62.5" id="Path" stroke="#C9D9F7" stroke-width="3"></path><path d="M45,44.14 L35,55 L25,44.14 C21.43,38.82 27.77,32.46 33.06,36.05 L35,37.33 L36.9,36.05 C42.19,32.46 48.53,38.82 45,44.14 Z" id="Path" stroke="#FFA700" stroke-width="3"></path><path d="M35,16.5 L26.59,3.05 C25.5000322,1.52450802 23.7681622,0.58609292 21.8949985,0.5060098 C20.0218348,0.425926681 18.2161909,1.21310292 17,2.64 L17,2.64 C15.7756857,4.07420853 15.2681089,5.98639689 15.6199652,7.83898876 C15.9718216,9.69158063 17.1451166,11.2845268 18.81,12.17 L28.45,16.46" id="Path" stroke="#1F61DC" stroke-width="3"></path><path d="M34.75,16.5 L43.16,3.05 C44.2496552,1.52078153 45.9838156,0.57972867 47.8598322,0.499607131 C49.7358487,0.419485591 51.5439297,1.20925522 52.76,2.64 L52.76,2.64 C53.9882013,4.06748589 54.5035687,5.97454191 54.1615748,7.82636114 C53.8195809,9.67818036 52.6570509,11.2753624 51,12.17 L41.36,16.46" id="Path" stroke="#1F61DC" stroke-width="3"></path></g></g></g></svg>