<svg xmlns="http://www.w3.org/2000/svg" xmlns:xlink="http://www.w3.org/1999/xlink" width="72px" height="72px" viewBox="0 0 72 72"><title>Confidential</title><desc>Created with Sketch.</desc><g id="Page-1" stroke="none" stroke-width="1" fill="none" fill-rule="evenodd"><g id="Confidential" transform="translate(0.000000, 1.000000)"><g><circle id="Oval" stroke="#1F61DC" stroke-width="3" cx="53.5" cy="17.5" r="17"></circle><circle id="Oval" stroke="#FFA700" stroke-width="3" cx="53.5" cy="13.5" r="4"></circle><path d="M45.5,25.5 C45.5,21.081722 49.081722,17.5 53.5,17.5 C57.918278,17.5 61.5,21.081722 61.5,25.5" id="Path" stroke="#FFA700" stroke-width="3"></path><rect id="Rectangle" stroke="#1F61DC" stroke-width="3" x="6.5" y="61.5" width="12" height="8"></rect><rect id="Rectangle" stroke="#1F61DC" stroke-width="3" x="36" y="61.5" width="12" height="8"></rect><polygon id="Path" fill="#1F61DC" fill-rule="nonzero" points="52 39 52 60 3 60 3 19 32 19 32 16 0 16 0 63 55 63 55 39"></polygon><path d="M12.5,24 L12.5,55" id="Path" stroke="#C9D9F7" stroke-width="3"></path><circle id="Oval" stroke="#1F61DC" stroke-width="3" cx="28" cy="40" r="6.5"></circle><path d="M35.5,39.5 L42.5,39.5" id="Path" stroke="#1F61DC" stroke-width="3"></path></g></g></g></svg>