<svg xmlns="http://www.w3.org/2000/svg" xmlns:xlink="http://www.w3.org/1999/xlink" width="72px" height="72px" viewBox="0 0 72 72"><title>Dedicated Team</title><desc>Created with Sketch.</desc><g id="Page-1" stroke="none" stroke-width="1" fill="none" fill-rule="evenodd"><g id="Dedicated-Team" transform="translate(1.000000, 1.000000)"><g><circle id="Oval" stroke="#1F61DC" stroke-width="3" cx="25.5" cy="33.5" r="12.5"></circle><path d="M0.5,71 C0.5,57.1928813 11.6928813,46 25.5,46 C39.3071187,46 50.5,57.1928813 50.5,71" id="Path" stroke="#1F61DC" stroke-width="3"></path><circle id="Oval" stroke="#1F61DC" stroke-width="3" cx="50.25" cy="9.75" r="9.25"></circle><path d="M50.5,17.5 C45.9208497,17.5014912 41.4754976,19.0443313 37.88,21.88 C38.5624115,22.6092653 39.181325,23.3954527 39.73,24.23 C44.9954844,20.0987222 52.1576413,19.3366338 58.1745625,22.2674087 C64.1914837,25.1981836 68.0067721,31.3072624 68,38 L71,38 C70.9834777,26.6850134 61.8149866,17.5165223 50.5,17.5 Z" id="Path" fill="#1F61DC" fill-rule="nonzero"></path><path d="M31.5,33.5 C31.4999999,36.8137084 28.8137084,39.4999999 25.5,39.5 C22.1862916,39.4999999 19.5000001,36.8137084 19.5,33.5" id="Path" stroke="#FFA700" stroke-width="3"></path><path d="M13,71 L13,59" id="Path" stroke="#C9D9F7" stroke-width="3"></path><path d="M38,71 L38,59" id="Path" stroke="#C9D9F7" stroke-width="3"></path></g></g></g></svg>