<svg xmlns="http://www.w3.org/2000/svg" xmlns:xlink="http://www.w3.org/1999/xlink" width="72px" height="72px" viewBox="0 0 72 72"><title>Digitally Mapped Forms</title><desc>Created with Sketch.</desc><g id="Page-1" stroke="none" stroke-width="1" fill="none" fill-rule="evenodd"><g id="Digitally-Mapped-Forms" transform="translate(1.000000, 1.000000)"><g id="Path"><polyline stroke="#1F61DC" stroke-width="3" points="50.5 12.5 38.5 12.5 38.5 0.5"></polyline><path d="M35,17 L35,33" stroke="#FFA700" stroke-width="3"></path><polyline stroke="#FFA700" stroke-width="3" points="43 27 35 35 27 27"></polyline><polyline stroke="#1F61DC" stroke-width="3" points="51 35 51 13 39 0.5 19 0.5 19 35"></polyline><polyline stroke="#1F61DC" stroke-width="3" points="56 12.5 69.5 12.5 69.5 56.5 0.5 56.5 0.5 12.5 14 12.5"></polyline><polygon stroke="#1F61DC" stroke-width="3" points="51.5 69.5 18.5 69.5 26.5 63 26.5 56.5 43.5 56.5 43.5 63"></polygon><path d="M6,42.5 L30,42.5" stroke="#C9D9F7" stroke-width="3"></path><path d="M6,49.5 L64,49.5" stroke="#C9D9F7" stroke-width="3"></path></g></g></g></svg>