<svg xmlns="http://www.w3.org/2000/svg" width="93" height="78"><g id="Page-1" fill="none" fill-rule="evenodd"><g id="Homepage-at-wider-viewport" transform="translate(-901 -2631)"><g id="Value-Props" transform="translate(406 2625)"><g id="Retain" transform="translate(386 6)"><g id="Retain-Icon" transform="translate(109)"><path id="Fill-1" fill="#1F61DC" d="M13.986 31C17.57 16.657 30.563 6 46 6c15.438 0 28.429 10.657 32.014 25h6.158C80.47 13.32 64.762 0 46 0 27.237 0 11.529 13.32 7.829 31h6.157z"></path><path id="Fill-3" fill="#FFA700" d="M78.014 47C74.43 61.343 61.437 72 46 72c-15.438 0-28.429-10.657-32.014-25H7.828C11.53 64.68 27.238 78 46 78c18.763 0 34.471-13.32 38.171-31h-6.157z"></path><path id="Fill-5" fill="#FFA700" d="M69 50.464l12-12 12 12"></path><path id="Fill-7" fill="#1F61DC" d="M24 26.464l-12 12-12-12"></path><path id="Fill-9" fill="#C9D9F7" d="M57 29c0 6.075-4.925 11-11 11s-11-4.925-11-11 4.925-11 11-11 11 4.925 11 11"></path><path id="Stroke-11" stroke="#C9D9F7" stroke-width="6" d="M30 58c0-8.836 7.164-16 16-16s16 7.164 16 16"></path></g></g></g></g></g></svg>