<svg xmlns="http://www.w3.org/2000/svg" xmlns:xlink="http://www.w3.org/1999/xlink" width="72px" height="72px" viewBox="0 0 72 72"><title>EaseHR</title><desc>Created with Sketch.</desc><g id="Page-1" stroke="none" stroke-width="1" fill="none" fill-rule="evenodd"><g id="EaseHR" transform="translate(0.000000, 1.000000)"><g><circle id="Oval" stroke="#1F61DC" stroke-width="3" cx="36" cy="19" r="18.5"></circle><path d="M54.5,57.5 L54.5,71" id="Path" stroke="#1F61DC" stroke-width="3"></path><path d="M36,67 L36,53" id="Path" stroke="#C9D9F7" stroke-width="3"></path><path d="M17.5,57.5 L17.5,71" id="Path" stroke="#1F61DC" stroke-width="3"></path><polyline id="Path" stroke="#1F61DC" stroke-width="3" points="70.58 46.92 67.39 55.51 58.59 52.24"></polyline><path d="M20.09,35.58 C8.2,42 0,55.49 0,71 L3,71 C3,56.16 11.06,43.36 22.58,37.66 C21.7010063,37.0275177 20.8688415,36.332376 20.09,35.58 L20.09,35.58 Z" id="Path" fill="#1F61DC" fill-rule="nonzero"></path><path d="M68.3,53.62 C64.9452341,45.9935452 59.1896715,39.6726101 51.91,35.62 C51.1311585,36.372376 50.2989937,37.0675177 49.42,37.7 C56.6788326,41.4016473 62.4186966,47.5199251 65.65,55 C66.3943526,54.3117543 67.3093426,53.835269 68.3,53.62 Z" id="Path" fill="#1F61DC" fill-rule="nonzero"></path><path d="M46,22.66 C44.5561079,26.9548447 40.5310612,29.8480809 36,29.8480809 C31.4689388,29.8480809 27.4438921,26.9548447 26,22.66" id="Path" stroke="#FFA700" stroke-width="3"></path><path d="M45,46.05 C39.1556953,47.9830516 32.8443047,47.9830516 27,46.05" id="Path" stroke="#C9D9F7" stroke-width="3"></path></g></g></g></svg>