<svg xmlns="http://www.w3.org/2000/svg" xmlns:xlink="http://www.w3.org/1999/xlink" width="72px" height="72px" viewBox="0 0 72 72"><title>Easy Submission</title><desc>Created with Sketch.</desc><g id="Page-1" stroke="none" stroke-width="1" fill="none" fill-rule="evenodd"><g id="Easy-Submission-(2)" transform="translate(0.000000, 1.000000)"><g><path d="M11,36.5 L46,36.5" id="Path" stroke="#C9D9F7" stroke-width="3"></path><path d="M11,47.5 L34.5,47.5" id="Path" stroke="#C9D9F7" stroke-width="3"></path><path d="M11,58.5 L46,58.5" id="Path" stroke="#C9D9F7" stroke-width="3"></path><polyline id="Path" stroke="#1F61DC" stroke-width="3" points="1.5 24.5 17.5 24.5 17.5 8.5"></polyline><polyline id="Path" stroke="#FFA700" stroke-width="3" points="47.02 19.5 55.5 11.02 63.98 19.5"></polyline><circle id="Oval" stroke="#1F61DC" stroke-width="3" cx="55.5" cy="15.5" r="15"></circle><path d="M54,35 L54,68 L3,68 L3,25.12 L18.12,10 L36.8,10 C37.116233,8.9684947 37.5176133,7.96504382 38,7 L16.88,7 L0,23.88 L0,71 L57,71 L57,35 L54,35 Z" id="Path" fill="#1F61DC" fill-rule="nonzero"></path></g></g></g></svg>