<svg xmlns="http://www.w3.org/2000/svg" xmlns:xlink="http://www.w3.org/1999/xlink" width="72px" height="72px" viewBox="0 0 72 72"><title>Encrypted Data</title><desc>Created with Sketch.</desc><g id="Page-1" stroke="none" stroke-width="1" fill="none" fill-rule="evenodd"><g transform="translate(0.000000, 1.000000)"><g><path d="M11,36.5 L36,36.5" id="Path" stroke="#C9D9F7" stroke-width="3"></path><path d="M11,47.5 L28.5,47.5" id="Path" stroke="#C9D9F7" stroke-width="3"></path><path d="M11,58.5 L46,58.5" id="Path" stroke="#C9D9F7" stroke-width="3"></path><polyline id="Path" stroke="#1F61DC" stroke-width="3" points="1.5 24.5 17.5 24.5 17.5 8.5"></polyline><polygon id="Path" fill="#1F61DC" fill-rule="nonzero" points="54 41 54 68 3 68 3 25.12 18.12 10 45 10 45 7 16.88 7 0 23.88 0 71 57 71 57 41"></polygon><rect id="Rectangle" stroke="#1F61DC" stroke-width="3" x="44" y="14" width="26" height="22"></rect><path d="M50,21.5 L64,21.5" id="Path" stroke="#FFA700" stroke-width="3"></path><path d="M50,28.5 L64,28.5" id="Path" stroke="#FFA700" stroke-width="3"></path><path d="M49,14.5 L49,8.5 C49,4.081722 52.581722,0.5 57,0.5 L57,0.5 C61.418278,0.5 65,4.081722 65,8.5 L65,14.5" id="Path" stroke="#1F61DC" stroke-width="3"></path></g></g></g></svg>