<svg xmlns="http://www.w3.org/2000/svg" xmlns:xlink="http://www.w3.org/1999/xlink" width="72px" height="72px" viewBox="0 0 72 72"><title>Face ID for log in</title><desc>Created with Sketch.</desc><g id="Page-1" stroke="none" stroke-width="1" fill="none" fill-rule="evenodd"><g id="Face-ID-for-log-in" transform="translate(0.000000, 1.000000)"><g><path d="M69,58 C69,63.5228475 64.5228475,68 59,68 L13,68 C7.4771525,68 3,63.5228475 3,58 L69,58 L69,58 Z M72,55 L0,55 L0,58 C8.79259876e-16,65.1797017 5.82029825,71 13,71 L59,71 C66.1797017,71 72,65.1797017 72,58 L72,55 Z" id="Shape" fill="#1F61DC" fill-rule="nonzero"></path><polyline id="Path" stroke="#1F61DC" stroke-width="3" points="58 17.5 63.5 17.5 63.5 56.5 8.5 56.5 8.5 17.5 14 17.5"></polyline><polyline id="Path" stroke="#1F61DC" stroke-width="3" stroke-linecap="square" points="53 25.43 53 34.5 43.93 34.5"></polyline><polyline id="Path" stroke="#1F61DC" stroke-width="3" stroke-linecap="square" points="43.93 0.5 53 0.5 53 9.57"></polyline><polyline id="Path" stroke="#1F61DC" stroke-width="3" stroke-linecap="square" points="19 9.57 19 0.5 28.07 0.5"></polyline><polyline id="Path" stroke="#1F61DC" stroke-width="3" stroke-linecap="square" points="28.07 34.5 19 34.5 19 25.43"></polyline><path d="M46,19.66 C44.5561079,23.9548447 40.5310612,26.8480809 36,26.8480809 C31.4689388,26.8480809 27.4438921,23.9548447 26,19.66" id="Path" stroke="#FFA700" stroke-width="3"></path><path d="M30.5,7.5 L30.5,14" id="Path" stroke="#FFA700" stroke-width="3"></path><path d="M41.5,7.5 L41.5,14" id="Path" stroke="#FFA700" stroke-width="3"></path><rect id="Rectangle" stroke="#C9D9F7" stroke-width="3" x="20.5" y="42.5" width="31" height="7"></rect></g></g></g></svg>