<svg version="1.1" id="Layer_1" xmlns="http://www.w3.org/2000/svg" xmlns:xlink="http://www.w3.org/1999/xlink" x="0px" y="0px"
	 viewBox="0 0 1171 236" enable-background="new 0 0 1171 236" xml:space="preserve">
<g id="Home-Page">
	<g id="Homepage-at-wider-viewport" transform="translate(-365.000000, -8638.000000)">
		<g id="Footer-Illustration" transform="translate(365.000000, 8638.000000)">
			
				<ellipse id="Oval" transform="matrix(0.1735 -0.9848 0.9848 0.1735 141.235 344.8922)" fill="none" stroke="#FFA700" stroke-width="2.43" stroke-linecap="square" cx="276.1" cy="88.3" rx="30.8" ry="30.8"/>
			<rect id="Rectangle" x="1.2" y="1.2" fill="none" stroke="#1F61DC" stroke-width="2.43" width="153.9" height="234.8"/>
			<path fill="none" stroke="#1F61DC" stroke-width="2.43" d="M163.2,95.1l2.4,140.9h106.9V95.1H163.2z"/>
			<rect id="Rectangle-Copy-23" x="32" y="195.5" fill="none" stroke="#1F61DC" stroke-width="2.43" width="64" height="40.5"/>
      <g transform="translate(5, 0)">
      <rect x="166.4" y="202" opacity="0.24" fill="none" stroke="#1F61DC" stroke-width="2.43" enable-background="new    " width="27.5" height="15.4"/>
			
				<rect x="234.4" y="202" opacity="0.24" fill="none" stroke="#1F61DC" stroke-width="2.43" enable-background="new    " width="27.5" height="15.4"/>
		
			<rect x="167.6" y="166" opacity="0.24" fill="#FFA700" enable-background="new    " width="92.3" height="25.1"/>
			<rect x="202.9" y="202" fill="none" stroke="#1F61DC" stroke-width="2.43" width="23.5" height="34"/>
			<path id="Line-8" fill="none" stroke="#FFA700" stroke-width="2.43" stroke-linecap="square" d="M177.8,174.5H247"/>
			<path id="Line-8-Copy" fill="none" stroke="#FFA700" stroke-width="2.43" stroke-linecap="square" d="M189.9,181.8h45.4"/>
			<g id="Group-19" transform="translate(165.203320, 119.019886)">
				<rect x="4.5" y="1.2" fill="none" stroke="#1F61DC" stroke-width="2.43" width="15.4" height="21.9"/>
				<polygon fill="#1F61DC" fill-opacity="0.24" points="21.1,0 21.1,24.3 3.2,24.3 				"/>
				<rect x="1.2" y="23.1" fill="none" stroke="#1F61DC" stroke-width="2.43" width="21.9" height="4"/>
			</g>
			<g transform="translate(199.215768, 119.019886)">
				<rect x="4.5" y="1.2" fill="none" stroke="#1F61DC" stroke-width="2.43" width="15.4" height="21.9"/>
				<polygon fill="#1F61DC" fill-opacity="0.24" points="21.1,0 21.1,24.3 3.2,24.3 				"/>
				<rect x="1.2" y="23.1" fill="none" stroke="#1F61DC" stroke-width="2.43" width="21.9" height="4"/>
			</g>
			<g transform="translate(233.228216, 119.019886)">
				<rect x="4.5" y="1.2" fill="none" stroke="#1F61DC" stroke-width="2.43" width="15.4" height="21.9"/>
				<polygon fill="#1F61DC" fill-opacity="0.24" points="21.1,0 21.1,24.3 3.2,24.3 				"/>
				<rect x="1.2" y="23.1" fill="none" stroke="#1F61DC" stroke-width="2.43" width="21.9" height="4"/>
			</g>
      </g>
			<path id="Line-9" fill="none" stroke="#1F61DC" stroke-width="2.43" stroke-linecap="square" d="M266.8,154.2h41.5"/>
			<rect x="279" y="154.2" fill="none" stroke="#1F61DC" stroke-width="2.43" width="30" height="25.1"/>
			<ellipse fill="none" stroke="#1F61DC" stroke-width="2.43" stroke-linecap="round" cx="313" cy="154.2" rx="2.8" ry="2.8"/>
			<path fill="none" stroke="#FFA700" stroke-width="2.43" stroke-linecap="round" d="M285.9,160.3h13.8v6.9c0,3.8-3.1,6.9-6.9,6.9
				l0,0c-3.8,0-6.9-3.1-6.9-6.9V160.3z"/>
			<path fill="none" stroke="#FFA700" stroke-width="2.43" stroke-linecap="round" d="M299.6,161.9h2.4c1.3,0,2.4,1.1,2.4,2.4l0,0
				c0,1.3-1.1,2.4-2.4,2.4h-2.4V161.9z"/>
			<g id="Group-20" transform="translate(313.400415, 182.982955)" opacity="0.24">
				<path id="Combined-Shape" fill="none" stroke="#1F61DC" stroke-width="2.43" stroke-linecap="round" d="M3.9,15.9
					c-0.9-1.6-1.4-3.4-1.4-5.3C2.4,4.7,7.1,0,13,0s10.5,4.7,10.5,10.5c0,1.9-0.5,3.8-1.4,5.3c2.4,2.4,3.9,5.6,3.9,9.2
					c0,7.2-5.8,13-13,13S0,32.2,0,25C0,21.5,1.5,18.2,3.9,15.9z"/>
				<path id="Line-10" fill="none" stroke="#1F61DC" stroke-width="2.43" stroke-linecap="square" d="M13,51.8V10.5"/>
				<path id="Line-11" fill="none" stroke="#1F61DC" stroke-width="2.43" stroke-linecap="square" d="M12.1,25.5l-5.3-5.3"/>
				<path id="Line-12" fill="none" stroke="#1F61DC" stroke-width="2.43" stroke-linecap="square" d="M13.8,31.2l7.3-7.3"/>
			</g>
			<path fill="none" stroke="#1F61DC" stroke-width="2.43" d="M576.2,155.8c-26.1,3.4-52.1,6.8-78.2,10.1
				c-43.6-5.8-87.2-11.6-130.7-17.3V236h208.9L576.2,155.8L576.2,155.8z"/>
			<rect x="608.6" y="113.8" fill="none" stroke="#1F61DC" stroke-width="2.43" width="5.7" height="122.3"/>
			<rect x="581" y="86.2" fill="none" stroke="#1F61DC" stroke-width="2.43" width="60.7" height="27.5"/>
			
					<path fill="none" stroke="#1F61DC" stroke-width="2.43" d="M425.5,215.4l-9.1,20.6h15.2l9.1-20.6H425.5z"/>
			<polyline id="Path-7" fill="none" stroke="#1F61DC" stroke-width="2.43" stroke-linecap="square" points="440.1,215.4 
				442.6,215.4 445.6,234.8 			"/>
			<polygon fill="#1F61DC" fill-opacity="0.24" points="426,220.2 435.7,220.2 433.3,225.9 423.5,225.9 			"/>
			<rect x="469.3" y="196.3" fill="none" stroke="#1F61DC" stroke-width="2.43" width="48.6" height="39.7"/>
			<path id="Line-18" fill="none" stroke="#1F61DC" stroke-width="2.43" stroke-linecap="square" d="M493.6,197.2v37.6"/>
			<polyline id="Path-8" fill="none" stroke="#1F61DC" stroke-width="2.43" stroke-linecap="square" points="340.8,144.8 
				498.3,165.4 593.5,152.4 			"/>
			<g id="Group-30" transform="translate(501.278700, 201.605114)" opacity="0.24">
				<path id="Line-19" fill="none" stroke="#1F61DC" stroke-width="2.43" stroke-linecap="square" d="M0.4,6.9l6.2-6.2"/>
				<path id="Line-19-Copy" fill="none" stroke="#1F61DC" stroke-width="2.43" stroke-linecap="square" d="M0,15.4l9-9"/>
			</g>
			<g id="Group-30-Copy" transform="translate(1076.251037, 204.843750)" opacity="0.24">
				<path fill="none" stroke="#1F61DC" stroke-width="2.43" stroke-linecap="square" d="M0.4,6.9l6.2-6.2"/>
				<path fill="none" stroke="#1F61DC" stroke-width="2.43" stroke-linecap="square" d="M0,15.4l9-9"/>
			</g>
			
				<ellipse opacity="0.24" fill="none" stroke="#1F61DC" stroke-width="2.43" stroke-linecap="square" enable-background="new    " cx="292.8" cy="230.3" rx="6.9" ry="6.9"/>
			<path id="Line-28" fill="none" stroke="#1F61DC" stroke-width="2.43" stroke-linecap="square" d="M63.7,195.9V236"/>
			<path fill="none" stroke="#1F61DC" stroke-width="2.43" d="M380.2,162.5v27.4h73.7v-19.6L380.2,162.5z"/>
			<polygon fill="#1F61DC" fill-opacity="0.24" points="455.1,170.8 455.1,191.1 379,191.1 			"/>
			<path fill="none" stroke="#1F61DC" stroke-width="2.43" d="M534.1,172.7v17.1h30V169L534.1,172.7z"/>
			<polygon fill="#1F61DC" fill-opacity="0.24" points="565.3,168.4 565.3,191.1 532.9,191.1 			"/>
			
				<rect id="Rectangle-Copy-17" x="584.7" y="89.9" opacity="0.24" fill="#FFA700" enable-background="new    " width="53.4" height="20.2"/>
			
				<rect id="Rectangle-Copy-22" x="829.3" y="145.7" opacity="0.24" fill="#FFA700" enable-background="new    " width="34" height="33.2"/>
			<path id="Line-8-Copy-2" fill="none" stroke="#FFA700" stroke-width="2.43" stroke-linecap="square" d="M592,96.8h38.9"/>
			<path id="Line-8-Copy-4" fill="none" stroke="#FFA700" stroke-width="2.43" stroke-linecap="square" d="M834.1,166.4h24.3"/>
			<path id="Line-8-Copy-3" fill="none" stroke="#FFA700" stroke-width="2.43" stroke-linecap="square" d="M598.5,103.2h25.9"/>
			<path id="Line-8-Copy-5" fill="none" stroke="#FFA700" stroke-width="2.43" stroke-linecap="square" d="M838.2,172.9h16.2"/>
			<rect x="686.3" y="108.1" fill="none" stroke="#1F61DC" stroke-width="2.43" width="110.9" height="127.9"/>
			
				<rect id="Rectangle-Copy-20" x="952.8" y="149.2" fill="none" stroke="#1F61DC" stroke-width="2.43" width="17.8" height="87.4"/>
			
				<rect x="963.3" y="171.2" opacity="0.24" fill="none" stroke="#1F61DC" stroke-width="2.43" enable-background="new    " width="7.3" height="30"/>
			
				<rect x="1152.8" y="171.2" opacity="0.24" fill="none" stroke="#1F61DC" stroke-width="2.43" enable-background="new    " width="7.3" height="30"/>
			<rect id="Rectangle-Copy-21" x="1152" y="154.9" fill="none" stroke="#1F61DC" stroke-width="2.43" width="17.8" height="81.8"/>
			<g id="Group-27" transform="translate(637.328492, 157.883523)" opacity="0.24">
				<path fill="none" stroke="#1F61DC" stroke-width="2.43" d="M13,1.2L13,1.2c6.5,0,11.7,5.3,11.7,11.7v17.8
					c0,6.5-5.3,11.7-11.7,11.7l0,0c-6.5,0-11.7-5.3-11.7-11.7V13C1.2,6.5,6.5,1.2,13,1.2z"/>
				<path id="Line-20" fill="none" stroke="#1F61DC" stroke-width="2.43" stroke-linecap="square" d="M13,9.4v69.8"/>
				<path id="Line-21" fill="none" stroke="#1F61DC" stroke-width="2.43" stroke-linecap="square" d="M12.1,22.7L6,15.8"/>
				<path id="Line-22" fill="none" stroke="#1F61DC" stroke-width="2.43" stroke-linecap="square" d="M13.8,28.7l6-6"/>
				<path id="Line-23" fill="none" stroke="#1F61DC" stroke-width="2.43" stroke-linecap="square" d="M12.1,34.4l-4.2-4.2"/>
			</g>
			<path fill="none" stroke="#FFA700" stroke-width="2.43" stroke-linecap="square" d="M757.2,146.5c0-5.4-5.8-9.7-13-9.7
				s-13,4.3-13,9.7"/>
			<path id="Oval-Copy-7" fill="none" stroke="#FFA700" stroke-width="2.43" stroke-linecap="square" d="M731.3,157.9
				c0,5.4,5.8,9.7,13,9.7s13-4.3,13-9.7"/>
			<path fill="none" stroke="#1F61DC" stroke-width="2.43" d="M730.9,151.8h26.7c1.3,0,2.4,1.1,2.4,2.4v0.8c0,1.3-1.1,2.4-2.4,2.4
				h-26.7c-1.3,0-2.4-1.1-2.4-2.4v-0.8C728.4,152.9,729.5,151.8,730.9,151.8z"/>
			<path id="Path-9" fill="none" stroke="#1F61DC" stroke-width="2.43" stroke-linecap="square" d="M726.4,149L726.4,149
				c1.8-1.9,4.8-2.1,6.7-0.3c0.1,0.1,0.2,0.2,0.3,0.3l0,0c1.8,1.9,4.8,2.1,6.7,0.3c0.1-0.1,0.2-0.2,0.3-0.3l0,0
				c1.8-1.9,4.8-2.1,6.7-0.3c0.1,0.1,0.2,0.2,0.3,0.3l0,0c1.8,1.9,4.8,2.1,6.7,0.3c0.1-0.1,0.2-0.2,0.3-0.3l0,0c1.9-2,5-2.2,7-0.3
				c0.1,0,0.1,0.1,0.2,0.2l0.3,0.3"/>
			<rect x="715.5" y="129.5" fill="none" stroke="#1F61DC" stroke-width="2.43" width="58.3" height="46.1"/>
			
				<path id="Line-24" opacity="0.24" fill="none" stroke="#1F61DC" stroke-width="2.43" stroke-linecap="square" enable-background="new    " d="
				M765.7,136v-25.9"/>
			<path opacity="0.24" fill="none" stroke="#1F61DC" stroke-width="2.43" stroke-linecap="square" enable-background="new    " d="
				M724.4,136v-25.9"/>
			<rect x="730.9" y="196.3" fill="none" stroke="#1F61DC" stroke-width="2.43" width="27.5" height="39.7"/>
			<rect x="837.8" y="205.2" fill="none" stroke="#1F61DC" stroke-width="2.43" width="17.8" height="30.8"/>
			<g id="Group-33" transform="translate(124.712310, 19.431818)">
				<rect x="1.2" y="1.2" fill="none" stroke="#1F61DC" stroke-width="2.43" width="18.6" height="36.4"/>
				<polygon fill="#1F61DC" fill-opacity="0.24" points="19.4,0.8 19.4,36.4 2.4,36.4 				"/>
			</g>
			<g transform="translate(86.650761, 19.431818)">
				<rect x="1.2" y="1.2" fill="none" stroke="#1F61DC" stroke-width="2.43" width="18.6" height="36.4"/>
				<polygon fill="#1F61DC" fill-opacity="0.24" points="19.4,0.8 19.4,36.4 2.4,36.4 				"/>
			</g>
			<g transform="translate(47.779391, 19.431818)">
				<rect x="1.2" y="1.2" fill="none" stroke="#1F61DC" stroke-width="2.43" width="18.6" height="36.4"/>
				<polygon fill="#1F61DC" fill-opacity="0.24" points="19.4,0.8 19.4,36.4 2.4,36.4 				"/>
			</g>
			<g transform="translate(9.717842, 19.431818)">
				<rect x="1.2" y="1.2" fill="none" stroke="#1F61DC" stroke-width="2.43" width="18.6" height="36.4"/>
				<polygon fill="#1F61DC" fill-opacity="0.24" points="19.4,0.8 19.4,36.4 2.4,36.4 				"/>
			</g>
			<g transform="translate(124.712310, 77.727273)">
				<rect x="1.2" y="1.2" fill="none" stroke="#1F61DC" stroke-width="2.43" width="18.6" height="36.4"/>
				<polygon fill="#1F61DC" fill-opacity="0.24" points="19.4,0.8 19.4,36.4 2.4,36.4 				"/>
			</g>
			<g transform="translate(86.650761, 77.727273)">
				<rect x="1.2" y="1.2" fill="none" stroke="#1F61DC" stroke-width="2.43" width="18.6" height="36.4"/>
				<polygon fill="#1F61DC" fill-opacity="0.24" points="19.4,0.8 19.4,36.4 2.4,36.4 				"/>
			</g>
			<g transform="translate(47.779391, 77.727273)">
				<rect x="1.2" y="1.2" fill="none" stroke="#1F61DC" stroke-width="2.43" width="18.6" height="36.4"/>
				<polygon fill="#1F61DC" fill-opacity="0.24" points="19.4,0.8 19.4,36.4 2.4,36.4 				"/>
			</g>
			<g transform="translate(9.717842, 77.727273)">
				<rect x="1.2" y="1.2" fill="none" stroke="#1F61DC" stroke-width="2.43" width="18.6" height="36.4"/>
				<polygon fill="#1F61DC" fill-opacity="0.24" points="19.4,0.8 19.4,36.4 2.4,36.4 				"/>
			</g>
			<g transform="translate(124.712310, 136.022727)">
				<rect x="1.2" y="1.2" fill="none" stroke="#1F61DC" stroke-width="2.43" width="18.6" height="36.4"/>
				<polygon fill="#1F61DC" fill-opacity="0.24" points="19.4,0.8 19.4,36.4 2.4,36.4 				"/>
			</g>
			<g transform="translate(86.650761, 136.022727)">
				<rect x="1.2" y="1.2" fill="none" stroke="#1F61DC" stroke-width="2.43" width="18.6" height="36.4"/>
				<polygon fill="#1F61DC" fill-opacity="0.24" points="19.4,0.8 19.4,36.4 2.4,36.4 				"/>
			</g>
			<g transform="translate(47.779391, 136.022727)">
				<rect x="1.2" y="1.2" fill="none" stroke="#1F61DC" stroke-width="2.43" width="18.6" height="36.4"/>
				<polygon fill="#1F61DC" fill-opacity="0.24" points="19.4,0.8 19.4,36.4 2.4,36.4 				"/>
			</g>
			<g transform="translate(9.717842, 136.022727)">
				<rect x="1.2" y="1.2" fill="none" stroke="#1F61DC" stroke-width="2.43" width="18.6" height="36.4"/>
				<polygon fill="#1F61DC" fill-opacity="0.24" points="19.4,0.8 19.4,36.4 2.4,36.4 				"/>
			</g>
			<rect x="779.5" y="86.2" fill="none" stroke="#1F61DC" stroke-width="2.43" width="4.9" height="21.9"/>
			<rect x="802.9" y="64.4" fill="none" stroke="#1F61DC" stroke-width="2.43" width="86.7" height="171.6"/>
			<path fill="none" stroke="#1F61DC" stroke-width="2.43" d="M977.9,124.3v112.5h167.6V124.3h-65.1v-12.1H1043v12.1H977.9z"/>
			<g id="Group-29" transform="translate(987.170816, 197.556818)">
				<polygon fill="#1F61DC" fill-opacity="0.24" points="34,0 34,30.8 1.6,30.8 				"/>
				<rect x="1.2" y="1.2" fill="none" stroke="#1F61DC" stroke-width="2.43" width="32.4" height="28.3"/>
			</g>
			<g transform="translate(1101.355463, 197.556818)">
				<polygon fill="#1F61DC" fill-opacity="0.24" points="34,0 34,30.8 1.6,30.8 				"/>
				<rect x="1.2" y="1.2" fill="none" stroke="#1F61DC" stroke-width="2.43" width="32.4" height="28.3"/>
			</g>
			<g transform="translate(987.170816, 155.454545)">
				<polygon fill="#1F61DC" fill-opacity="0.24" points="18.6,0 18.6,30.8 0.8,30.8 				"/>
				<rect x="1.2" y="1.2" fill="none" stroke="#1F61DC" stroke-width="2.43" width="17" height="28.3"/>
			</g>
			<g transform="translate(1019.563624, 155.454545)">
				<polygon fill="#1F61DC" fill-opacity="0.24" points="18.6,0 18.6,30.8 0.8,30.8 				"/>
				<rect x="1.2" y="1.2" fill="none" stroke="#1F61DC" stroke-width="2.43" width="17" height="28.3"/>
			</g>
			<g transform="translate(1051.956432, 155.454545)">
				<polygon fill="#1F61DC" fill-opacity="0.24" points="18.6,0 18.6,30.8 0.8,30.8 				"/>
				<rect x="1.2" y="1.2" fill="none" stroke="#1F61DC" stroke-width="2.43" width="17" height="28.3"/>
			</g>
			<g transform="translate(1084.349239, 155.454545)">
				<polygon fill="#1F61DC" fill-opacity="0.24" points="18.6,0 18.6,30.8 0.8,30.8 				"/>
				<rect x="1.2" y="1.2" fill="none" stroke="#1F61DC" stroke-width="2.43" width="17" height="28.3"/>
			</g>
			<g transform="translate(1116.742047, 155.454545)">
				<polygon fill="#1F61DC" fill-opacity="0.24" points="18.6,0 18.6,30.8 0.8,30.8 				"/>
				<rect x="1.2" y="1.2" fill="none" stroke="#1F61DC" stroke-width="2.43" width="17" height="28.3"/>
			</g>
			<g id="Group-31" transform="translate(905.378976, 180.553977)" opacity="0.24">
				<ellipse fill="none" stroke="#1F61DC" stroke-width="2.43" stroke-linecap="square" cx="16.2" cy="16.2" rx="16.2" ry="16.2"/>
				<path id="Line-26" fill="none" stroke="#1F61DC" stroke-width="2.43" stroke-linecap="square" d="M16.2,10.5V57"/>
				<path id="Line-27" fill="none" stroke="#1F61DC" stroke-width="2.43" stroke-linecap="square" d="M15.4,21.9l-8.9-7.3"/>
			</g>
			<path fill="none" stroke="#FFA700" stroke-width="2.43" d="M1065.3,120.2h-7.3v8.1h-8.1v7.3h8.1v8.1h7.3v-8.1h8.1v-7.3h-8.1
				V120.2z"/>
			<rect x="1032.1" y="198.8" fill="none" stroke="#1F61DC" stroke-width="2.43" width="60.7" height="37.2"/>
			<path id="Line-25" fill="none" stroke="#1F61DC" stroke-width="2.43" stroke-linecap="square" d="M1062.8,199.5V236"/>
			<ellipse fill="none" stroke="#FFA700" stroke-width="2.43" stroke-linecap="square" cx="846.7" cy="155.9" rx="5.3" ry="5.3"/>
			
				<rect x="985.1" y="130.8" opacity="0.24" fill="none" stroke="#FFA700" stroke-width="2.43" enable-background="new    " width="55.9" height="2.4"/>
			
				<rect x="1082.3" y="130.8" opacity="0.24" fill="none" stroke="#FFA700" stroke-width="2.43" enable-background="new    " width="55.9" height="2.4"/>
			<path opacity="0.24" fill="none" stroke="#1F61DC" stroke-width="2.43" stroke-linecap="square" enable-background="new    " d="
				M723.8,236c0.6-1.1,1-2.3,1-3.6c0-4-3.3-7.3-7.3-7.3c-1.1,0-2.2,0.3-3.1,0.7c-1.5-3.7-5.1-6.4-9.4-6.4c-5.6,0-10.1,4.5-10.1,10.1
				c0,2.5,0.9,4.7,2.3,6.5H723.8z"/>
			<path opacity="0.24" fill="none" stroke="#1F61DC" stroke-width="2.43" stroke-linecap="square" enable-background="new    " d="
				M139.5,236c0.4-0.9,0.6-1.8,0.6-2.8c0-4-3.3-7.3-7.3-7.3c-1.4,0-2.7,0.4-3.8,1.1c-1.4-3.9-5.1-6.7-9.5-6.7
				c-5.6,0-10.1,4.5-10.1,10.1c0,2.1,0.6,4.1,1.7,5.7h28.4V236z"/>
		</g>
	</g>
</g>
</svg>
