<svg xmlns="http://www.w3.org/2000/svg" xmlns:xlink="http://www.w3.org/1999/xlink" width="72px" height="72px" viewBox="0 0 72 72"><title>Gain new business</title><desc>Created with Sketch.</desc><g id="Page-1" stroke="none" stroke-width="1" fill="none" fill-rule="evenodd"><g id="Gain-new-business" transform="translate(0.000000, 1.000000)"><g><path d="M69,58 C69,63.5228475 64.5228475,68 59,68 L13,68 C7.4771525,68 3,63.5228475 3,58 L69,58 L69,58 Z M72,55 L0,55 L0,58 C8.79259876e-16,65.1797017 5.82029825,71 13,71 L59,71 C66.1797017,71 72,65.1797017 72,58 L72,55 Z" id="Shape" fill="#1F61DC" fill-rule="nonzero"></path><polyline id="Path" stroke="#1F61DC" stroke-width="3" points="58 17.5 63.5 17.5 63.5 56.5 8.5 56.5 8.5 17.5 14 17.5"></polyline><circle id="Oval" stroke="#1F61DC" stroke-width="3" cx="36" cy="17.5" r="17"></circle><circle id="Oval" stroke="#FFA700" stroke-width="3" cx="36" cy="13.5" r="4"></circle><path d="M28,25.5 C28,21.081722 31.581722,17.5 36,17.5 C40.418278,17.5 44,21.081722 44,25.5" id="Path" stroke="#FFA700" stroke-width="3"></path><rect id="Rectangle" fill="#C9D9F7" fill-rule="nonzero" x="22" y="43.5" width="3" height="8"></rect><rect id="Rectangle" fill="#C9D9F7" fill-rule="nonzero" x="35" y="39.5" width="3" height="12"></rect><rect id="Rectangle" fill="#C9D9F7" fill-rule="nonzero" x="48" y="35.5" width="3" height="16"></rect></g></g></g></svg>