<svg xmlns="http://www.w3.org/2000/svg" xmlns:xlink="http://www.w3.org/1999/xlink" width="72px" height="72px" viewBox="0 0 72 72"><title>Help Desk</title><desc>Created with Sketch.</desc><g id="Page-1" stroke="none" stroke-width="1" fill="none" fill-rule="evenodd"><g id="Help-Desk" transform="translate(0.000000, 1.000000)"><g><path d="M33.75,44.5 L55.75,44.5" id="Path" stroke="#C9D9F7" stroke-width="3"></path><path d="M69,58 C69,63.5228475 64.5228475,68 59,68 L13,68 C7.4771525,68 3,63.5228475 3,58 L69,58 L69,58 Z M72,55 L0,55 L0,58 C8.79259876e-16,65.1797017 5.82029825,71 13,71 L59,71 C66.1797017,71 72,65.1797017 72,58 L72,55 Z" id="Shape" fill="#1F61DC" fill-rule="nonzero"></path><polyline id="Path" stroke="#1F61DC" stroke-width="3" points="63.5 41.5 63.5 56.5 8.5 56.5 8.5 17.5 25 17.5"></polyline><circle id="Oval" stroke="#C9D9F7" stroke-width="3" cx="21.5" cy="44.5" r="4"></circle><circle id="Oval" stroke="#C9D9F7" stroke-width="3" cx="21.5" cy="29.5" r="4"></circle><circle id="Oval" stroke="#1F61DC" stroke-width="3" cx="44.5" cy="14.5" r="14"></circle><path d="M56.74,23 L65.67,31.93 C66.7682223,33.0371911 66.7682223,34.8228089 65.67,35.93 L65.45,36.15 C64.3428089,37.2482223 62.5571911,37.2482223 61.45,36.15 L52.5,27.24" id="Path" stroke="#1F61DC" stroke-width="3"></path><polyline id="Path" stroke="#FFA700" stroke-width="3" points="38.78 15.07 43.37 19.23 51 9.27"></polyline></g></g></g></svg>