<svg xmlns="http://www.w3.org/2000/svg" xmlns:xlink="http://www.w3.org/1999/xlink" width="72" height="73"><defs><path id="path-1" d="M0 72h72V0H0z"></path></defs><g id="Employer-Benefits" fill="none" fill-rule="evenodd"><g id="Employer---Ben-Admin" transform="translate(-1069 -7012)"><g id="Face-ID-Log-In-Icon" transform="translate(1069 7012.5)"><path id="Fill-1" fill="#1F61DC" d="M72 56H0v3c0 7.168 5.832 13 13 13h46c7.168 0 13-5.832 13-13v-3zm-3 3c0 5.522-4.477 10-10 10H13C7.477 69 3 64.522 3 59h66z"></path><path id="Stroke-3" stroke="#1F61DC" stroke-width="3" d="M58 18.5h5.5v39h-55v-39H14"></path><path id="Stroke-5" stroke="#1F61DC" stroke-linecap="square" stroke-width="3" d="M53 26.434V35.5h-9.067"></path><path id="Stroke-7" stroke="#1F61DC" stroke-linecap="square" stroke-width="3" d="M43.933 1.5H53v9.066"></path><path id="Stroke-9" stroke="#1F61DC" stroke-linecap="square" stroke-width="3" d="M19 10.566V1.5h9.067"></path><path id="Stroke-11" stroke="#1F61DC" stroke-linecap="square" stroke-width="3" d="M28.067 35.5H19v-9.066"></path><path id="Stroke-13" stroke="#FFA700" stroke-width="3" d="M46 20.655c-1.401 4.18-5.349 7.19-10 7.19s-8.599-3.01-10-7.19"></path><path id="Stroke-15" stroke="#FFA700" stroke-width="3" d="M30.5 8.5V15"></path><path id="Stroke-17" stroke="#FFA700" stroke-width="3" d="M41.5 8.5V15"></path><mask id="mask-2" fill="#fff"><use xlink:href="#path-1"></use></mask><path id="Stroke-19" stroke="#C9D9F7" stroke-width="3" d="M20.5 50.5h31v-7h-31z" mask="url(#mask-2)"></path></g></g></g></svg>