<svg xmlns="http://www.w3.org/2000/svg" xmlns:xlink="http://www.w3.org/1999/xlink" width="72px" height="72px" viewBox="0 0 72 72"><g id="Employer-HR" stroke="none" stroke-width="1" fill="none" fill-rule="evenodd"><g id="Employer---HR" transform="translate(-297.000000, -5856.000000)" stroke-width="3"><g id="Group-10" transform="translate(40.000000, 5382.000000)"><g id="Group-7" transform="translate(108.000000, 475.000000)"><g id="Time-off-on-the-go-icon" transform="translate(150.000000, 0.000000)"><polyline id="Stroke-1" stroke="#1F61DC" points="62.5 5.5 69.5 5.5 69.5 37 34.5 37 34.5 5.5 41.5 5.5"></polyline><path d="M47.5,5.5 L56.5,5.5" id="Stroke-3" stroke="#1F61DC"></path><path d="M34.5,15.5 L69.5,15.5" id="Stroke-4" stroke="#1F61DC"></path><polyline id="Stroke-6" stroke="#FFA700" points="58.2881 21.0479 51.4751 30.9269 46.7741 26.2259"></polyline><polyline id="Stroke-7" stroke="#1F61DC" points="40.5 43 40.5 69.5 0.5 69.5 0.5 15.5 28.5 15.5"></polyline><polygon id="Stroke-9" stroke="#C9D9F7" points="11.5 58.5 29.5 58.5 29.5 48.5 11.5 48.5"></polygon><g id="Group-14" transform="translate(41.000000, 0.000000)" stroke="#1F61DC"><path d="M3.5,10.5 L3.5,10.5 C1.843,10.5 0.5,9.157 0.5,7.5 L0.5,3.5 C0.5,1.843 1.843,0.5 3.5,0.5 C5.157,0.5 6.5,1.843 6.5,3.5 L6.5,7.5 C6.5,9.157 5.157,10.5 3.5,10.5 Z" id="Stroke-10"></path><path d="M18.5,10.5 L18.5,10.5 C16.843,10.5 15.5,9.157 15.5,7.5 L15.5,3.5 C15.5,1.843 16.843,0.5 18.5,0.5 C20.157,0.5 21.5,1.843 21.5,3.5 L21.5,7.5 C21.5,9.157 20.157,10.5 18.5,10.5 Z" id="Stroke-12"></path></g><path d="M28.5,25.5 L11.5,25.5" id="Stroke-15" stroke="#1F61DC"></path><path d="M28.5,5.5 L18.5,5.5" id="Stroke-16" stroke="#1F61DC"></path></g></g></g></g></g></svg>