<svg xmlns="http://www.w3.org/2000/svg" viewBox="0 0 72 72"><g fill="none" stroke-width="3"><path fill="#1F61DC" d="M69 59a10 10 0 0 1-10 10H13A10 10 0 0 1 3 59h66zm3-3H0v3a13 13 0 0 0 13 13h46a13 13 0 0 0 13-13v-3z"></path><circle cx="36" cy="18.5" r="17" stroke="#1F61DC"></circle><path stroke="#1F61DC" d="M58 18.5h5.5v39h-55v-39H14"></path><circle cx="36" cy="14.5" r="4" stroke="#FFA700"></circle><path stroke="#FFA700" d="M28 26.5a8 8 0 1 1 16 0"></path><path fill="#C9D9F7" d="M22 44.5h3v8h-3zM35 40.5h3v12h-3zM48 36.5h3v16h-3z"></path></g></svg>