<svg xmlns="http://www.w3.org/2000/svg" width="72" height="73"><g id="Employer-Benefits" fill="none" fill-rule="evenodd"><g id="Employer---Ben-Admin" transform="translate(-300 -7012)"><g id="Acces-insurance-info-icon" transform="translate(300 7013.5)"><path id="Stroke-1" stroke="#1F61DC" stroke-width="3" d="M60.741 20l8.926 8.926a2.846 2.846 0 0 1 0 4.023l-.218.218a2.846 2.846 0 0 1-4.023 0L56.5 24.241"></path><path id="Stroke-3" stroke="#1F61DC" stroke-width="3" d="M62.5 14c0 7.456-6.044 13.5-13.5 13.5S35.5 21.456 35.5 14 41.544.5 49 .5 62.5 6.544 62.5 14z"></path><path id="Stroke-5" stroke="#FFA700" stroke-width="3" d="M42.775 15.075l4.597 4.159L55 9.271"></path><path id="Stroke-7" stroke="#C9D9F7" stroke-width="3" d="M11 36.5h25"></path><path id="Stroke-9" stroke="#C9D9F7" stroke-width="3" d="M11 47.5h17.5"></path><path id="Stroke-11" stroke="#C9D9F7" stroke-width="3" d="M11 58.5h27"></path><path id="Stroke-13" stroke="#1F61DC" stroke-width="3" d="M1.5 30.5h16v-16"></path><path id="Fill-15" fill="#1F61DC" d="M47 34v34H3V31.121L18.121 16H30v-3H16.879L0 29.879V71h50V34z"></path></g></g></g></svg>