<svg xmlns="http://www.w3.org/2000/svg" viewBox="0 0 810 75"><defs><linearGradient id="ease-connect-svg-gradient" x1="50%" x2="0%" y1="0%" y2="0%"><stop offset="0%" stop-color="#1F61DC"></stop><stop offset="100%" stop-color="#FFF"></stop></linearGradient></defs><g fill="none" stroke-width="3"><g transform="translate(372)"><path stroke="#1F61DC" d="M2.5 73.5h59L32 18.2 2.5 73.5z"></path><circle cx="32" cy="17" r="17" fill="#FFF"></circle><circle cx="32" cy="17" r="12" stroke="#1F61DC" stroke-linecap="square"></circle><circle cx="32" cy="17" r="6" fill="#FFF" stroke="#FFA700" stroke-linecap="square"></circle><path stroke="#1F61DC" stroke-linecap="square" d="M11.5 61.5h43M17 47.5h30"></path><g stroke="#1F61DC" stroke-linecap="square" opacity=".2"><path d="M13 17H3M16.2 26.4l-7 4M16.2 7.4l-7-4"></path></g><g stroke="#1F61DC" stroke-linecap="square" opacity=".2"><path d="M51 17h10M47.8 26.5l7 4M47.8 7.5l7-4"></path></g><path stroke="#1F61DC" d="M17 47.5L32 60l15-12.5"></path></g><path fill="url(#ease-connect-svg-gradient)" d="M-1.5 16.2v-3h320v3z" transform="translate(2 37)"></path><g transform="translate(205 37)"><circle cx="14" cy="14" r="14" fill="#1F61DC" opacity=".2"></circle><circle cx="14" cy="14" r="6" fill="#FFF" stroke="#1F61DC"></circle></g><g transform="translate(105 37)"><circle cx="14" cy="14" r="14" fill="#1F61DC" opacity=".2"></circle><circle cx="14" cy="14" r="6" fill="#FFF" stroke="#1F61DC"></circle></g><g><path fill="url(#ease-connect-svg-gradient)" d="M-1.5 16.2v-3h320v3z" transform="rotate(-180 404 32.5)"></path><g transform="rotate(-180 302.5 32.5)"><circle cx="14" cy="14" r="14" fill="#1F61DC" opacity=".2"></circle><circle cx="14" cy="14" r="6" fill="#FFF" stroke="#1F61DC"></circle></g><g transform="rotate(-180 352.5 32.5)"><circle cx="14" cy="14" r="14" fill="#1F61DC" opacity=".2"></circle><circle cx="14" cy="14" r="6" fill="#FFF" stroke="#1F61DC"></circle></g></g></g></svg>