<svg xmlns="http://www.w3.org/2000/svg" width="72" height="72"><g id="Customer-Service" fill="none" fill-rule="evenodd"><g id="Service" transform="translate(-1031 -1999)"><g id="More-than-training" transform="translate(145 1707)"><g id="Group-2" transform="translate(686 293)"><g id="Help-Desk-Icon" transform="translate(200)"><path id="Stroke-1" stroke="#C9D9F7" stroke-width="3" d="M33.75 44.5h22"></path><g id="Group-16"><path id="Fill-2" fill="#1F61DC" d="M72 55H0v3c0 7.168 5.832 13 13 13h46c7.168 0 13-5.832 13-13v-3zm-3 3c0 5.522-4.477 10-10 10H13C7.477 68 3 63.522 3 58h66z"></path><path id="Stroke-4" stroke="#1F61DC" stroke-width="3" d="M63.5 41.5v15h-55v-39H25"></path><path id="Stroke-6" stroke="#C9D9F7" stroke-width="3" d="M25.5 44.5a4 4 0 1 1-8 0 4 4 0 0 1 8 0z"></path><path id="Stroke-8" stroke="#C9D9F7" stroke-width="3" d="M25.5 29.5a4 4 0 1 1-8 0 4 4 0 0 1 8 0z"></path><path id="Stroke-10" stroke="#1F61DC" stroke-width="3" d="M58.5 14.5c0 7.732-6.268 14-14 14s-14-6.268-14-14 6.268-14 14-14 14 6.268 14 14z"></path><path id="Stroke-12" stroke="#1F61DC" stroke-width="3" d="M56.741 23l8.926 8.926a2.845 2.845 0 0 1 0 4.023l-.218.218a2.846 2.846 0 0 1-4.023 0L52.5 27.241"></path><path id="Stroke-14" stroke="#FFA700" stroke-width="3" d="M38.776 15.075l4.597 4.159L51 9.271"></path></g></g></g></g></g></g></svg>