<svg xmlns="http://www.w3.org/2000/svg" xmlns:xlink="http://www.w3.org/1999/xlink" width="72" height="73"><defs><path id="path-1" d="M0 72h72V0H0z"></path></defs><g id="Employer-Benefits" fill="none" fill-rule="evenodd"><g id="Employer---Ben-Admin" transform="translate(-1069 -7311)"><g id="All-in-one-place-Icon" transform="translate(1069 7311.5)"><path id="Stroke-1" stroke="#1F61DC" stroke-width="3" d="M50.5 47v23.5h-49v-61H28"></path><path id="Stroke-3" stroke="#1F61DC" stroke-width="3" d="M70.5 24.929v-6.857l-5.725-.655a14.795 14.795 0 0 0-1.29-3.13l3.581-4.504-4.848-4.85-4.506 3.582a14.773 14.773 0 0 0-3.129-1.29L53.929 1.5h-6.858l-.654 5.725c-1.1.314-2.149.745-3.129 1.29l-4.506-3.581-4.848 4.849 3.581 4.505c-.545.98-.976 2.03-1.29 3.129l-5.725.655v6.857l5.725.654c.314 1.1.745 2.15 1.29 3.129l-3.581 4.506 4.848 4.849 4.506-3.581c.98.545 2.029.975 3.129 1.29l.654 5.724h6.858l.654-5.724c1.1-.315 2.149-.745 3.129-1.29l4.506 3.58 4.848-4.848-3.581-4.506c.545-.98.976-2.03 1.29-3.13l5.725-.653z"></path><path id="Stroke-5" stroke="#FFA700" stroke-width="3" d="M57.357 21.5a6.857 6.857 0 1 1-13.714 0 6.857 6.857 0 0 1 13.714 0z"></path><path id="Stroke-7" stroke="#1F61DC" stroke-width="3" d="M31.75 47.25a5.25 5.25 0 1 1-10.501-.001 5.25 5.25 0 0 1 10.501.001z"></path><path id="Stroke-9" stroke="#1F61DC" stroke-width="3" d="M16 63c0-5.799 4.701-10.5 10.5-10.5S37 57.201 37 63"></path><mask id="mask-2" fill="#fff"><use xlink:href="#path-1"></use></mask><path id="Fill-11" fill="#C9D9F7" d="M9 23h12v-3H9z" mask="url(#mask-2)"></path><path id="Fill-13" fill="#C9D9F7" d="M9 32h15v-3H9z" mask="url(#mask-2)"></path></g></g></g></svg>