<svg xmlns="http://www.w3.org/2000/svg" width="68" height="72" viewBox="0 0 68 72"><g fill="none" fill-rule="evenodd"><path stroke="#C9D9F7" stroke-width="3" d="M27.8 32.3v8-20zM27.8 46.7v1.6-4z"></path><path stroke="#FFA700" stroke-width="3" d="M60.4 51.3l-8.1 8.4-8-8.4"></path><path stroke="#1F61DC" stroke-width="3" d="M38.2 55.3c0-8.3 6.3-15 14.1-15 7.9 0 14.2 6.7 14.2 15 0 8.2-6.3 15-14.2 15-7.8 0-14.1-6.8-14.1-15z"></path><path fill="#1F61DC" d="M34 55.3v-1.5H4.7L27.8 6.5l15.6 31.8c.8-.5 1.6-1 2.5-1.3L28 0 0 56.8h34v-1.5"></path></g></svg>