<svg xmlns="http://www.w3.org/2000/svg" xmlns:xlink="http://www.w3.org/1999/xlink" width="72px" height="72px" viewBox="0 0 72 72"><g id="Employer-HR" stroke="none" stroke-width="1" fill="none" fill-rule="evenodd"><g id="Employer---HR" transform="translate(-1069.000000, -5855.000000)"><g id="Group-10" transform="translate(40.000000, 5382.000000)"><g id="Review-time-off-icon" transform="translate(1029.000000, 474.000000)"><polyline id="Stroke-1" stroke="#1F61DC" stroke-width="3" points="1.5 24.5 17.5 24.5 17.5 8.5"></polyline><polygon id="Fill-3" fill="#1F61DC" points="16.8786 7.0001 -0.0004 23.8791 -0.0004 71.0001 51.0006 71.0001 51.0006 35.0001 47.9996 35.0001 47.9996 68.0001 2.9996 68.0001 2.9996 25.1211 18.1216 10.0001 28.9996 10.0001 28.9996 7.0001"></polygon><polygon id="Stroke-4" stroke="#1F61DC" stroke-width="3" points="12.5 43.5 20.5 43.5 20.5 35.5 12.5 35.5"></polygon><polygon id="Stroke-5" stroke="#C9D9F7" stroke-width="3" points="29.5 43.5 37.5 43.5 37.5 35.5 29.5 35.5"></polygon><polygon id="Stroke-6" stroke="#C9D9F7" stroke-width="3" points="12.5 60.5 20.5 60.5 20.5 52.5 12.5 52.5"></polygon><polygon id="Stroke-7" stroke="#C9D9F7" stroke-width="3" points="29.5 60.5 37.5 60.5 37.5 52.5 29.5 52.5"></polygon><g id="Group-14" transform="translate(34.000000, 0.000000)" stroke-width="3"><path d="M28.5,14.3086 C28.5,21.9346 22.232,28.1166 14.5,28.1166 C6.768,28.1166 0.5,21.9346 0.5,14.3086 C0.5,6.6826 6.768,0.4996 14.5,0.4996 C22.232,0.4996 28.5,6.6826 28.5,14.3086 Z" id="Stroke-8" stroke="#1F61DC"></path><path d="M26.7412,22.6914 L35.6672,31.4954 C36.7772,32.5904 36.7772,34.3674 35.6672,35.4624 L35.4492,35.6774 C34.3382,36.7744 32.5372,36.7744 31.4262,35.6774 L22.5002,26.8754" id="Stroke-10" stroke="#1F61DC"></path><polyline id="Stroke-12" stroke="#FFA700" points="8.7754 14.875 13.3724 18.978 21.0004 9.151"></polyline></g></g></g></g></g></svg>