<svg xmlns="http://www.w3.org/2000/svg" width="72" height="73"><g id="Employer-Benefits" fill="none" fill-rule="evenodd"><g id="Employer---Ben-Admin" stroke-width="3" transform="translate(-298 -7313)"><g id="Review-without-internet-Icon" transform="translate(299 7314.5)"><path id="Stroke-1" stroke="#1F61DC" d="M45 44.5h7.493c9.393 0 17.007-7.494 17.007-16.739 0-9.245-7.614-16.74-17.007-16.74-.597 0-1.185.033-1.766.091C46.809 4.751 39.708.5 31.599.5 20.046.5 10.542 9.127 9.369 20.192 4.23 21.769.5 26.488.5 32.065.5 38.933 6.156 44.5 13.134 44.5H25"></path><path id="Stroke-3" stroke="#FFA700" d="M25.5 15l-4 18"></path><path id="Stroke-5" stroke="#FFA700" d="M32.5 15l-4 18"></path><path id="Stroke-7" stroke="#FFA700" d="M18 20.5h18.5"></path><path id="Stroke-9" stroke="#FFA700" d="M18 27.5h18.5"></path><path id="Stroke-11" stroke="#1F61DC" d="M30 39v14.5H20l15 15 15-15H40V39"></path><path id="Stroke-13" stroke="#C9D9F7" d="M42 23.5h17"></path></g></g></g></svg>