<svg xmlns="http://www.w3.org/2000/svg" xmlns:xlink="http://www.w3.org/1999/xlink" width="71px" height="72px" viewBox="0 0 71 72"><g id="Employer-HR" stroke="none" stroke-width="1" fill="none" fill-rule="evenodd"><g id="Employer---HR" transform="translate(-299.000000, -5556.000000)"><g id="Group-10" transform="translate(40.000000, 5382.000000)"><g id="Vacation-on-cal" transform="translate(0.000000, 88.000000)"><g id="Vacation-on-cal-icon" transform="translate(260.000000, 86.000000)"><g id="Group-5" transform="translate(0.000000, 8.000000)" stroke="#1F61DC" stroke-width="3"><polyline id="Stroke-1" points="54.5 35.3555 54.5 27.0005 54.5 0.5005 33.227 0.5005 0.5 0.5005 0.5 54.5005 14 54.5005"></polyline><polyline id="Stroke-3" points="45.3359 54.5 66.4999 54.5 56.4999 42.5 31.4999 42.5 26.4999 38.5 21.4999 38.5 21.4999 54.5 28.4999 54.5 33.4999 54.5"></polyline></g><polygon id="Fill-6" fill="#1F61DC" points="48.4721 57.4074 35.9051 69.0004 31.5351 69.0004 39.4741 57.4014 35.6971 57.4014 25.4641 72.0004 37.0941 72.0004 52.8721 57.3854"></polygon><polygon id="Stroke-7" stroke="#FFA700" stroke-width="3" points="8.5 38.5 16.5 38.5 16.5 30.5 8.5 30.5"></polygon><polygon id="Stroke-8" stroke="#C9D9F7" stroke-width="3" points="23.5 38.5 31.5 38.5 31.5 30.5 23.5 30.5"></polygon><polygon id="Stroke-9" stroke="#C9D9F7" stroke-width="3" points="38.5 38.5 46.5 38.5 46.5 30.5 38.5 30.5"></polygon><g id="Group-18" transform="translate(1.000000, 0.000000)" stroke="#1F61DC" stroke-width="3"><path d="M0,22.5 L54,22.5" id="Stroke-10"></path><path d="M11.5,0 L11.5,15" id="Stroke-12"></path><path d="M26.5,0 L26.5,15" id="Stroke-14"></path><path d="M41.5,0 L41.5,15" id="Stroke-16"></path></g></g></g></g></g></g></svg>