<svg xmlns="http://www.w3.org/2000/svg" xmlns:xlink="http://www.w3.org/1999/xlink" width="72px" height="72px" viewBox="0 0 72 72"><title>Info on demand</title><desc>Created with Sketch.</desc><g id="Page-1" stroke="none" stroke-width="1" fill="none" fill-rule="evenodd"><g id="Info-on-demand" transform="translate(0.000000, 1.000000)"><g><path d="M60.74,20 L69.67,28.93 C70.7682223,30.0371911 70.7682223,31.8228089 69.67,32.93 L69.45,33.15 C68.3428089,34.2482223 66.5571911,34.2482223 65.45,33.15 L56.5,24.24" id="Path" stroke="#1F61DC" stroke-width="3"></path><circle id="Oval" stroke="#1F61DC" stroke-width="3" cx="49" cy="14" r="13.5"></circle><polyline id="Path" stroke="#FFA700" stroke-width="3" points="42.78 15.07 47.37 19.23 55 9.27"></polyline><path d="M11,36.5 L36,36.5" id="Path" stroke="#C9D9F7" stroke-width="3"></path><path d="M11,47.5 L28.5,47.5" id="Path" stroke="#C9D9F7" stroke-width="3"></path><path d="M11,58.5 L38,58.5" id="Path" stroke="#C9D9F7" stroke-width="3"></path><polyline id="Path" stroke="#1F61DC" stroke-width="3" points="1.5 30.5 17.5 30.5 17.5 14.5"></polyline><polygon id="Path" fill="#1F61DC" fill-rule="nonzero" points="47 34 47 68 3 68 3 31.12 18.12 16 30 16 30 13 16.88 13 0 29.88 0 71 50 71 50 34"></polygon></g></g></g></svg>