<svg xmlns="http://www.w3.org/2000/svg" xmlns:xlink="http://www.w3.org/1999/xlink" width="78px" height="72px" viewBox="0 0 78 72"><g id="Page-1" stroke="none" stroke-width="1" fill="none" fill-rule="evenodd"><g id="Homepage" transform="translate(-108.000000, -2822.000000)" fill-rule="nonzero"><g id="Simple-enrollment" transform="translate(107.000000, 2746.000000)"><g id="Setup-Icon" transform="translate(1.000000, 66.000000)"><rect id="Rectangle" stroke="#1F61DC" stroke-width="3" x="10.5" y="38.1701862" width="47" height="33"></rect><rect id="Rectangle" fill="#FFFFFF" x="40" y="34.6701862" width="38" height="21"></rect><path d="M1.60633329,71.1701862 C2.33417778,76.2586274 6.71029214,80.1701862 12,80.1701862 L56,80.1701862 C61.2897079,80.1701862 65.6658222,76.2586274 66.3936667,71.1701862 L1.60633329,71.1701862 Z" id="Rectangle" stroke="#1F61DC" stroke-width="3"></path><polyline id="Path-4" stroke="#1F61DC" stroke-width="3" opacity="0.24" stroke-linecap="square" points="28 56.0696955 31.724598 59.6701862 40 49.6701862"></polyline><g id="Group-3" transform="translate(53.517842, 31.500000) rotate(-45.000000) translate(-53.517842, -31.500000) translate(36.517842, 4.000000)" stroke-width="3"><rect id="Rectangle-Copy-3" stroke="#1F61DC" fill="#FFFFFF" stroke-linecap="square" x="9.5" y="23" width="8" height="32"></rect><rect id="Rectangle-Copy-7" stroke="#FFA700" fill="#FFFFFF" stroke-linecap="square" x="9.5" y="16" width="8" height="8"></rect><path d="M13.5,12 L13.5,-4.54913884e-13" id="Line-5-Copy-2" stroke="#1F61DC" opacity="0.24"></path><path d="M27.5,26 L27.5,14" id="Line-5-Copy-3" stroke="#1F61DC" opacity="0.24" transform="translate(27.500000, 20.000000) rotate(-270.000000) translate(-27.500000, -20.000000) "></path><path d="M4.41421356,14.5355339 L4.41421356,5.70710678" id="Line-5-Copy-5" stroke="#1F61DC" opacity="0.24" transform="translate(3.914214, 10.207107) rotate(-225.000000) translate(-3.914214, -10.207107) "></path><path d="M24.4142136,14.5355339 L24.4142136,5.70710678" id="Line-5-Copy-6" stroke="#1F61DC" opacity="0.24" transform="translate(23.914214, 10.207107) scale(-1, 1) rotate(-225.000000) translate(-23.914214, -10.207107) "></path></g></g></g></g></g></svg>