<svg xmlns="http://www.w3.org/2000/svg" xmlns:xlink="http://www.w3.org/1999/xlink" width="72px" height="72px" viewBox="0 0 72 72"><title>Lower submission risks</title><desc>Created with Sketch.</desc><g id="Page-1" stroke="none" stroke-width="1" fill="none" fill-rule="evenodd"><g id="Lower-submission-risks"><g><rect id="Rectangle" fill="#C9D9F7" fill-rule="nonzero" x="27.97" y="20.25" width="3" height="20"></rect><rect id="Rectangle" fill="#C9D9F7" fill-rule="nonzero" x="27.97" y="44.25" width="3" height="4"></rect><polygon id="Path" fill="#FFA700" fill-rule="nonzero" points="55.47 61.86 45.92 52.31 48.04 50.19 55.47 57.62 62.89 50.19 65.02 52.31"></polygon><path d="M55.47,71.75 C46.3612252,71.7334386 38.9889762,64.3388195 39.0000121,55.2300364 C39.0110481,46.1212532 46.4011937,38.7445198 55.5099818,38.7500303 C64.61877,38.7555407 71.9999849,46.1412102 72,55.25 C71.9889607,64.3698383 64.5898433,71.7555272 55.47,71.75 Z M55.47,41.75 C48.0180836,41.7665599 41.988981,47.8180289 42.0000148,55.2699556 C42.0110486,62.7218822 48.058045,68.7554707 55.5099778,68.749963 C62.9619106,68.7444553 68.9999816,62.7019348 68.9999997,55.2499962 C68.9889621,47.7870161 62.93299,41.7444719 55.47,41.75 Z" id="Shape" fill="#1F61DC" fill-rule="nonzero"></path><path d="M36,55.25 C36,54.75 36,54.25 36.08,53.75 L4.94,53.75 L29.47,6.51 L46,38.25 C46.8599423,37.7651963 47.7559214,37.3472956 48.68,37 L29.47,0 L0,56.75 L36.05,56.75 C36,56.26 36,55.76 36,55.25 Z" id="Path" fill="#1F61DC" fill-rule="nonzero"></path></g></g></g></svg>