<svg xmlns="http://www.w3.org/2000/svg" xmlns:xlink="http://www.w3.org/1999/xlink" width="2036" height="1566"><defs><circle id="path-1" cx="158.526" cy="158.768" r="158.166"></circle></defs><g id="Page-1" fill="none" fill-rule="evenodd"><g id="Textures"><circle id="Yellow-Circle-Texture" cx="465.5" cy="1359.5" r="99.5" fill="#FFA700" fill-rule="nonzero"></circle><path id="Benefits-Background-Textue" fill="#1F61DC" fill-opacity=".05" fill-rule="nonzero" d="M839.626 211.746C964.292 119.527 1118.528 65 1285.5 65c414.49 0 750.5 336.01 750.5 750.5S1699.99 1566 1285.5 1566c-266.21 0-500.048-138.604-633.285-347.583-33.275 6.291-67.61 9.583-102.715 9.583C246.02 1228 0 981.98 0 678.5S246.02 129 549.5 129c106.502 0 205.927 30.298 290.126 82.746z"></path><circle id="Blue-Cirlce-Texture" cx="1432.5" cy="219.5" r="219.5" fill="#1F61DC" fill-rule="nonzero"></circle><g id="Line-Cirlce-Texture" opacity=".24" transform="rotate(-150 552.5 673.167)"><g id="Line-Cirlce" transform="translate(.839 .859)"><mask id="mask-2" fill="#fff"><use xlink:href="#path-1"></use></mask><g id="Group" fill-rule="nonzero" stroke="#1F61DC" stroke-linecap="square" mask="url(#mask-2)"><g transform="translate(-90.095 -45.381)"><path id="Line-2" d="M.173 0v510.996"></path><path id="Line-2-Copy-32" d="M269.939 0v510.996"></path><path id="Line-2-Copy-16" d="M135.142 0v510.996"></path><path id="Line-2-Copy-33" d="M404.562 0v510.996"></path><path id="Line-2-Copy-8" d="M67.658 0v510.996"></path><path id="Line-2-Copy-34" d="M337.423 0v510.996"></path><path id="Line-2-Copy-17" d="M202.627 0v510.996"></path><path id="Line-2-Copy-35" d="M472.046 0v510.996"></path><path id="Line-2-Copy-4" d="M34.088 0v510.996"></path><path id="Line-2-Copy-36" d="M303.854 0v510.996"></path><path id="Line-2-Copy-18" d="M169.058 0v510.996"></path><path id="Line-2-Copy-37" d="M438.477 0v510.996"></path><path id="Line-2-Copy-9" d="M101.573 0v510.996"></path><path id="Line-2-Copy-38" d="M371.339 0v510.996"></path><path id="Line-2-Copy-19" d="M236.542 0v510.996"></path><path id="Line-2-Copy-39" d="M505.962 0v510.996"></path><path id="Line-2-Copy-2" d="M17.13 0v510.996"></path><path id="Line-2-Copy-40" d="M286.896 0v510.996"></path><path id="Line-2-Copy-20" d="M152.1 0v510.996"></path><path id="Line-2-Copy-41" d="M421.52 0v510.996"></path><path id="Line-2-Copy-10" d="M84.615 0v510.996"></path><path id="Line-2-Copy-42" d="M354.38 0v510.996"></path><path id="Line-2-Copy-21" d="M219.585 0v510.996"></path><path id="Line-2-Copy-43" d="M489.004 0v510.996"></path><path id="Line-2-Copy-5" d="M50.7 0v510.996"></path><path id="Line-2-Copy-44" d="M320.466 0v510.996"></path><path id="Line-2-Copy-22" d="M185.67 0v510.996"></path><path id="Line-2-Copy-45" d="M455.089 0v510.996"></path><path id="Line-2-Copy-11" d="M118.185 0v510.996"></path><path id="Line-2-Copy-46" d="M387.95 0v510.996"></path><path id="Line-2-Copy-23" d="M253.154 0v510.996"></path><path id="Line-2-Copy-47" d="M522.573 0v510.996"></path><path id="Line-2-Copy" d="M8.479 0v510.996"></path><path id="Line-2-Copy-48" d="M278.244 0v510.996"></path><path id="Line-2-Copy-24" d="M143.448 0v510.996"></path><path id="Line-2-Copy-49" d="M412.868 0v510.996"></path><path id="Line-2-Copy-12" d="M75.963 0v510.996"></path><path id="Line-2-Copy-50" d="M345.729 0v510.996"></path><path id="Line-2-Copy-25" d="M210.933 0v510.996"></path><path id="Line-2-Copy-51" d="M480.352 0v510.996"></path><path id="Line-2-Copy-6" d="M42.394 0v510.996"></path><path id="Line-2-Copy-52" d="M312.16 0v510.996"></path><path id="Line-2-Copy-26" d="M177.363 0v510.996"></path><path id="Line-2-Copy-53" d="M446.783 0v510.996"></path><path id="Line-2-Copy-13" d="M109.879 0v510.996"></path><path id="Line-2-Copy-54" d="M379.644 0v510.996"></path><path id="Line-2-Copy-27" d="M244.848 0v510.996"></path><path id="Line-2-Copy-55" d="M514.268 0v510.996"></path><path id="Line-2-Copy-3" d="M25.437 0v510.996"></path><path id="Line-2-Copy-56" d="M295.202 0v510.996"></path><path id="Line-2-Copy-28" d="M160.406 0v510.996"></path><path id="Line-2-Copy-57" d="M429.825 0v510.996"></path><path id="Line-2-Copy-14" d="M92.921 0v510.996"></path><path id="Line-2-Copy-58" d="M362.687 0v510.996"></path><path id="Line-2-Copy-29" d="M227.89 0v510.996"></path><path id="Line-2-Copy-59" d="M497.31 0v510.996"></path><path id="Line-2-Copy-7" d="M59.006 0v510.996"></path><path id="Line-2-Copy-60" d="M328.771 0v510.996"></path><path id="Line-2-Copy-30" d="M193.975 0v510.996"></path><path id="Line-2-Copy-61" d="M463.395 0v510.996"></path><path id="Line-2-Copy-15" d="M126.49 0v510.996"></path><path id="Line-2-Copy-62" d="M396.256 0v510.996"></path><path id="Line-2-Copy-31" d="M261.46 0v510.996"></path><path id="Line-2-Copy-63" d="M530.88 0v510.996"></path></g></g></g></g></g></g></svg>