<svg xmlns="http://www.w3.org/2000/svg" xmlns:xlink="http://www.w3.org/1999/xlink" width="72px" height="72px" viewBox="0 0 72 72"><title>Onboarding</title><desc>Created with Sketch.</desc><g id="Page-1" stroke="none" stroke-width="1" fill="none" fill-rule="evenodd"><g id="Onboarding" transform="translate(0.000000, 1.000000)"><g><path d="M33.75,44.5 L55.75,44.5" id="Path" stroke="#C9D9F7" stroke-width="3"></path><polyline id="Path" stroke="#FFA700" stroke-width="3" points="47.02 19.5 55.5 11.02 63.98 19.5"></polyline><path d="M69,58 L69,58 C69,63.5228475 64.5228475,68 59,68 L13,68 C7.4771525,68 3,63.5228475 3,58 L69,58 L69,58 Z M69,55 L0,55 L0,58 C8.79259876e-16,65.1797017 5.82029825,71 13,71 L59,71 C66.1797017,71 72,65.1797017 72,58 L72,55 L69,55 Z" id="Shape" fill="#1F61DC" fill-rule="nonzero"></path><polyline id="Path" stroke="#1F61DC" stroke-width="3" points="63.5 35 63.5 56.5 8.5 56.5 8.5 17.5 35 17.5"></polyline><rect id="Rectangle" stroke="#1F61DC" stroke-width="3" x="40.5" y="0.5" width="30" height="30"></rect><circle id="Oval" stroke="#C9D9F7" stroke-width="3" cx="21.5" cy="44.5" r="4"></circle><circle id="Oval" stroke="#C9D9F7" stroke-width="3" cx="21.5" cy="29.5" r="4"></circle></g></g></g></svg>