<svg xmlns="http://www.w3.org/2000/svg" xmlns:xlink="http://www.w3.org/1999/xlink" width="72px" height="72px" viewBox="0 0 72 72"><title>One Login</title><desc>Created with Sketch.</desc><g id="Page-1" stroke="none" stroke-width="1" fill="none" fill-rule="evenodd"><g id="One-Login" transform="translate(0.000000, 1.000000)"><g><rect id="Rectangle" stroke="#1F61DC" stroke-width="3" x="23" y="14" width="26" height="22"></rect><path d="M29,21.5 L43,21.5" id="Path" stroke="#FFA700" stroke-width="3"></path><path d="M29,28.5 L43,28.5" id="Path" stroke="#FFA700" stroke-width="3"></path><path d="M28,8.5 C28,4.081722 31.581722,0.5 36,0.5 L36,0.5 C40.418278,0.5 44,4.081722 44,8.5 L44,14.5" id="Path" stroke="#1F61DC" stroke-width="3"></path><path d="M69,58 C69,63.5228475 64.5228475,68 59,68 L13,68 C7.4771525,68 3,63.5228475 3,58 L69,58 L69,58 Z M72,55 L0,55 L0,58 C8.79259876e-16,65.1797017 5.82029825,71 13,71 L59,71 C66.1797017,71 72,65.1797017 72,58 L72,55 Z" id="Shape" fill="#1F61DC" fill-rule="nonzero"></path><polyline id="Path" stroke="#1F61DC" stroke-width="3" points="56 17.5 63.5 17.5 63.5 56.5 8.5 56.5 8.5 17.5 16 17.5"></polyline><rect id="Rectangle" stroke="#C9D9F7" stroke-width="3" x="18.5" y="42.75" width="35" height="7"></rect></g></g></g></svg>