<svg xmlns="http://www.w3.org/2000/svg" xmlns:xlink="http://www.w3.org/1999/xlink" width="70px" height="74px" viewBox="0 0 70 74"><title>Payroll Integration</title><desc>Created with Sketch.</desc><g id="Page-1" stroke="none" stroke-width="1" fill="none" fill-rule="evenodd"><g id="Payroll-Integration" transform="translate(0.000000, 1.000000)"><g id="Path"><path d="M24,53.5 L59.5,53.5" stroke="#C9D9F7" stroke-width="3"></path><path d="M43.25,21.75 L43.25,28.25" stroke="#FFA700" stroke-width="3"></path><path d="M43.25,39.75 L43.25,46.25" stroke="#FFA700" stroke-width="3"></path><polyline stroke="#FFA700" stroke-width="3" points="47 34 38.5 34 38.5 27 48.5 27"></polyline><polyline stroke="#FFA700" stroke-width="3" points="37.5 34 46 34 46 41 35.5 41"></polyline><polyline stroke="#1F61DC" stroke-width="3" points="14.5 24 14.5 69.5 24.5 63.5 31.83 69.5 41.5 63.5 50.34 69.5 59.5 63.5 68.5 69.5 68.5 16.5 52.5 0.5 14.5 0.5 14.5 15"></polyline><polyline stroke="#1F61DC" stroke-width="3" points="68.5 16.5 52.5 16.5 52.5 0.5"></polyline><path d="M0,19.5 L30.5,19.5" stroke="#1F61DC" stroke-width="3"></path><polyline stroke="#1F61DC" stroke-width="3" points="22.5 11.02 30.98 19.5 22.5 27.98"></polyline></g></g></g></svg>