<svg xmlns="http://www.w3.org/2000/svg" xmlns:xlink="http://www.w3.org/1999/xlink" width="72px" height="72px" viewBox="0 0 72 72"><title>Protect book of business</title><desc>Created with Sketch.</desc><g id="Page-1" stroke="none" stroke-width="1" fill="none" fill-rule="evenodd"><g id="Protect-book-of-business"><g><rect id="Rectangle" fill="#C9D9F7" fill-rule="nonzero" x="28.75" y="32.75" width="3" height="6.5"></rect><rect id="Rectangle" fill="#C9D9F7" fill-rule="nonzero" x="28.75" y="50.75" width="3" height="6.5"></rect><polygon id="Path" fill="#C9D9F7" fill-rule="nonzero" points="34 46.5 24 46.5 24 36.5 35.5 36.5 35.5 39.5 27 39.5 27 43.5 34 43.5"></polygon><polygon id="Path" fill="#C9D9F7" fill-rule="nonzero" points="34.5 53.5 22.5 53.5 22.5 50.5 31.5 50.5 31.5 46.5 24.5 46.5 24.5 43.5 34.5 43.5"></polygon><polygon id="Path" fill="#1F61DC" fill-rule="nonzero" points="53.5 71.5 4.5 71.5 4.5 18.5 39.5 18.5 39.5 21.5 7.5 21.5 7.5 68.5 50.5 68.5 50.5 40.5 53.5 40.5"></polygon><rect id="Rectangle" fill="#1F61DC" fill-rule="nonzero" x="0" y="27" width="12" height="3"></rect><rect id="Rectangle" fill="#1F61DC" fill-rule="nonzero" x="0" y="38" width="12" height="3"></rect><rect id="Rectangle" fill="#1F61DC" fill-rule="nonzero" x="0" y="49" width="12" height="3"></rect><rect id="Rectangle" fill="#1F61DC" fill-rule="nonzero" x="0" y="60" width="12" height="3"></rect><path d="M71.5,38.5 L42.5,38.5 L42.5,13.5 L71.5,13.5 L71.5,38.5 Z M45.5,35.5 L68.5,35.5 L68.5,16.5 L45.5,16.5 L45.5,35.5 Z" id="Shape" fill="#1F61DC" fill-rule="nonzero"></path><rect id="Rectangle" fill="#FFA700" fill-rule="nonzero" x="50" y="21" width="14" height="3"></rect><rect id="Rectangle" fill="#FFA700" fill-rule="nonzero" x="50" y="28" width="14" height="3"></rect><path d="M66.5,15.5000003 L63.5,15.5000003 L63.5,9.50000028 C63.5,5.91014913 60.5898509,3 57,3.00000028 C53.4101491,3 50.5,5.91014913 50.5,9.50000028 L50.5,15.5000003 L47.5,15.5000003 L47.5,9.50000028 C47.5000002,4.25329499 51.753295,2.83122062e-07 57,2.83122063e-07 C62.246705,2.83122063e-07 66.4999998,4.25329499 66.5,9.50000028 L66.5,15.5000003 Z" id="Path" fill="#1F61DC" fill-rule="nonzero"></path></g></g></g></svg>