<svg xmlns="http://www.w3.org/2000/svg" xmlns:xlink="http://www.w3.org/1999/xlink" width="72px" height="72px" viewBox="0 0 72 72"><title>Request time off on the go</title><desc>Created with Sketch.</desc><g id="Page-1" stroke="none" stroke-width="1" fill="none" fill-rule="evenodd"><g id="Request-time-off-on-the-go" transform="translate(1.000000, 1.000000)"><g><polyline id="Path" stroke="#1F61DC" stroke-width="3" points="62.5 5.5 69.5 5.5 69.5 37 34.5 37 34.5 5.5 41.5 5.5"></polyline><path d="M47.5,5.5 L56.5,5.5" id="Path" stroke="#1F61DC" stroke-width="3"></path><path d="M34.5,15.5 L69.5,15.5" id="Path" stroke="#1F61DC" stroke-width="3"></path><polyline id="Path" stroke="#FFA700" stroke-width="3" points="58.29 21.05 51.48 30.93 46.77 26.23"></polyline><polyline id="Path" stroke="#1F61DC" stroke-width="3" points="40.5 43 40.5 69.5 0.5 69.5 0.5 15.5 28.5 15.5"></polyline><rect id="Rectangle" stroke="#C9D9F7" stroke-width="3" x="11.5" y="48.5" width="18" height="10"></rect><rect id="Rectangle" stroke="#1F61DC" stroke-width="3" x="41.5" y="0.5" width="6" height="10" rx="3"></rect><rect id="Rectangle" stroke="#1F61DC" stroke-width="3" x="56.5" y="0.5" width="6" height="10" rx="3"></rect><path d="M28.5,25.5 L11.5,25.5" id="Path" stroke="#1F61DC" stroke-width="3"></path><path d="M28.5,5.5 L18.5,5.5" id="Path" stroke="#1F61DC" stroke-width="3"></path></g></g></g></svg>