<svg xmlns="http://www.w3.org/2000/svg" xmlns:xlink="http://www.w3.org/1999/xlink" width="72px" height="72px" viewBox="0 0 72 72"><title>Review time off</title><desc>Created with Sketch.</desc><g id="Page-1" stroke="none" stroke-width="1" fill="none" fill-rule="evenodd"><g id="Review-time-off" transform="translate(0.000000, 1.000000)"><g><polyline id="Path" stroke="#1F61DC" stroke-width="3" points="1.5 24.5 17.5 24.5 17.5 8.5"></polyline><polygon id="Path" fill="#1F61DC" fill-rule="nonzero" points="48 35 48 68 3 68 3 25.12 18.12 10 29 10 29 7 16.88 7 0 23.88 0 71 51 71 51 35"></polygon><rect id="Rectangle" stroke="#1F61DC" stroke-width="3" x="12.5" y="35.5" width="8" height="8"></rect><rect id="Rectangle" stroke="#C9D9F7" stroke-width="3" x="29.5" y="35.5" width="8" height="8"></rect><rect id="Rectangle" stroke="#C9D9F7" stroke-width="3" x="12.5" y="52.5" width="8" height="8"></rect><rect id="Rectangle" stroke="#C9D9F7" stroke-width="3" x="29.5" y="52.5" width="8" height="8"></rect><ellipse id="Oval" stroke="#1F61DC" stroke-width="3" cx="48.5" cy="14.31" rx="14" ry="13.81"></ellipse><path d="M60.74,22.69 L69.67,31.5 C70.2152257,32.0224574 70.5235188,32.7448624 70.5235188,33.5 C70.5235188,34.2551376 70.2152257,34.9775426 69.67,35.5 L69.45,35.72 C68.33413,36.7969421 66.56587,36.7969421 65.45,35.72 L56.5,26.87" id="Path" stroke="#1F61DC" stroke-width="3"></path><polyline id="Path" stroke="#FFA700" stroke-width="3" points="42.78 14.88 47.37 18.98 55 9.15"></polyline></g></g></g></svg>