<svg xmlns="http://www.w3.org/2000/svg" xmlns:xlink="http://www.w3.org/1999/xlink" width="73px" height="72px" viewBox="0 0 73 72"><title>Review without internet</title><desc>Created with Sketch.</desc><g id="Page-1" stroke="none" stroke-width="1" fill="none" fill-rule="evenodd"><g id="Review-without-internet" transform="translate(2.000000, 1.000000)"><g id="Path"><path d="M45,44.5 L52.49,44.5 C61.7352467,44.5 69.23,37.0052467 69.23,27.76 C69.23,18.5147533 61.7352467,11.02 52.49,11.02 C51.9021782,11.0198003 51.3147352,11.04984 50.73,11.11 C45.712278,3.01852297 36.1363517,-1.02787503 26.83681,1.01370716 C17.5372682,3.05528934 10.5369102,10.7407749 9.37,20.19 C3.4088792,21.9492978 -0.331432807,27.8470727 0.61858602,33.9893487 C1.56860485,40.1316247 6.91592267,44.6238262 13.13,44.5 L25,44.5" stroke="#1F61DC" stroke-width="3"></path><path d="M25.5,15 L21.5,33" stroke="#FFA700" stroke-width="3"></path><path d="M32.5,15 L28.5,33" stroke="#FFA700" stroke-width="3"></path><path d="M18,20.5 L36.5,20.5" stroke="#FFA700" stroke-width="3"></path><path d="M18,27.5 L36.5,27.5" stroke="#FFA700" stroke-width="3"></path><polyline stroke="#1F61DC" stroke-width="3" points="30 39 30 53.5 20 53.5 35 68.5 50 53.5 40 53.5 40 39"></polyline><path d="M42,23.5 L59,23.5" stroke="#C9D9F7" stroke-width="3"></path></g></g></g></svg>