<svg xmlns="http://www.w3.org/2000/svg" xmlns:xlink="http://www.w3.org/1999/xlink" width="71px" height="72px" viewBox="0 0 71 72"><title>See vacation on cal</title><desc>Created with Sketch.</desc><g id="Page-1" stroke="none" stroke-width="1" fill="none" fill-rule="evenodd"><g id="See-vacation-on-cal" transform="translate(1.000000, 0.000000)"><g><polyline id="Path" stroke="#1F61DC" stroke-width="3" points="54.5 43.35 54.5 35 54.5 8.5 33.23 8.5 0.5 8.5 0.5 62.5 14 62.5"></polyline><polyline id="Path" stroke="#1F61DC" stroke-width="3" points="45.34 62.5 66.5 62.5 56.5 50.5 31.5 50.5 26.5 46.5 21.5 46.5 21.5 62.5 28.5 62.5 33.5 62.5"></polyline><polygon id="Path" fill="#1F61DC" fill-rule="nonzero" points="48.47 57.41 35.91 69 31.53 69 39.47 57.4 35.7 57.4 25.46 72 37.09 72 52.87 57.39"></polygon><rect id="Rectangle" stroke="#FFA700" stroke-width="3" x="8.5" y="30.5" width="8" height="8"></rect><rect id="Rectangle" stroke="#C9D9F7" stroke-width="3" x="23.5" y="30.5" width="8" height="8"></rect><rect id="Rectangle" stroke="#C9D9F7" stroke-width="3" x="38.5" y="30.5" width="8" height="8"></rect><path d="M1,22.5 L55,22.5" id="Path" stroke="#1F61DC" stroke-width="3"></path><path d="M12.5,0 L12.5,15" id="Path" stroke="#1F61DC" stroke-width="3"></path><path d="M27.5,0 L27.5,15" id="Path" stroke="#1F61DC" stroke-width="3"></path><path d="M42.5,0 L42.5,15" id="Path" stroke="#1F61DC" stroke-width="3"></path></g></g></g></svg>