<svg xmlns="http://www.w3.org/2000/svg" xmlns:xlink="http://www.w3.org/1999/xlink" width="73" height="72"><defs><path id="path-1" d="M0 72h72.5V0H0z"></path></defs><g id="Overview" fill="none" fill-rule="evenodd"><g id="Overview-mod" transform="translate(-891 -3026)"><g id="Employee-Enrollment" transform="translate(322 2071)"><g id="Faster-Enrollements" transform="translate(416 955)"><g id="Faster-Enrollments-Icon" transform="translate(153)"><path id="Stroke-1" stroke="#FFA700" stroke-width="3" d="M48 41.5a6 6 0 0 1-12 0 6 6 0 0 1 12 0z"></path><path id="Stroke-3" stroke="#1F61DC" stroke-width="3" d="M16 27.5H0"></path><path id="Stroke-5" stroke="#1F61DC" stroke-width="3" d="M13 41.5H4.5"></path><path id="Stroke-7" stroke="#1F61DC" stroke-width="3" d="M17 55.5H4"></path><mask id="mask-2" fill="#fff"><use xlink:href="#path-1"></use></mask><path id="Stroke-9" stroke="#1F61DC" stroke-width="3" d="M36 7.5h12v-6H36z" mask="url(#mask-2)"></path><path id="Stroke-11" stroke="#1F61DC" stroke-width="3" d="M42 10v2.5-5z" mask="url(#mask-2)"></path><path id="Fill-12" fill="#1F61DC" d="M14.5 41.5c0-3.274.574-6.464 1.692-9.5h-3.174a30.356 30.356 0 0 0-1.48 11h3.004a28.7 28.7 0 0 1-.042-1.5" mask="url(#mask-2)"></path><path id="Fill-13" fill="#1F61DC" d="M14.874 46h-3.04a30.28 30.28 0 0 0 3.917 11h3.553a27.354 27.354 0 0 1-4.43-11" mask="url(#mask-2)"></path><path id="Fill-14" fill="#1F61DC" d="M42 11a30.526 30.526 0 0 0-26.273 15H4v3h13.482l.428-.775A27.53 27.53 0 0 1 42 14c15.164 0 27.5 12.336 27.5 27.5S57.164 69 42 69c-8.045 0-15.29-3.475-20.321-9h-3.902C23.354 67.288 32.135 72 42 72c16.818 0 30.5-13.682 30.5-30.5C72.5 24.682 58.818 11 42 11" mask="url(#mask-2)"></path><path id="Stroke-15" stroke="#FFA700" stroke-width="3" d="M46 37.5l13-13" mask="url(#mask-2)"></path><path id="Fill-16" fill="#C9D9F7" d="M59.306 30.559l-2.18 2.18a17.378 17.378 0 0 1 2.374 8.76C59.5 51.15 51.65 59 42 59s-17.5-7.85-17.5-17.5C24.5 31.852 32.35 24 42 24c3.194 0 6.18.875 8.762 2.376l2.18-2.18A20.354 20.354 0 0 0 42 21c-11.303 0-20.5 9.197-20.5 20.5C21.5 52.804 30.697 62 42 62c11.304 0 20.5-9.196 20.5-20.5a20.35 20.35 0 0 0-3.194-10.941" mask="url(#mask-2)"></path></g></g></g></g></g></svg>