<svg xmlns="http://www.w3.org/2000/svg" viewBox="0 0 117 46" width="117" height="46"><g fill="#1F61DC" fill-rule="nonzero"><path d="M0 0h21.3c2 .3 4 .6 5.9 1.3 2 .8 4.1 1.8 5.5 3.7 1.2 2 2.2 4.4 1.8 6.8a9 9 0 0 1-2 4.3c-1.7 2-4 3.3-6.5 4-1.2.4-2.5.3-3.7.8 2.6.1 5.3.6 7.7 1.7 2.9 1 5.3 3.4 6.4 6.3.7 1.8.7 3.8.5 5.7-.4 1.6-.9 3.2-2 4.5-1 1.3-2.3 2.4-3.7 3.3-1.6.8-3.3 1.5-5 1.9-3.5 1-7.2.7-10.7.7H0v-1h4.2V1H0V0zm14 1v19.7h3.9a7.8 7.8 0 0 0 7-6.8c.3-1.4.5-3 .2-4.6-.2-1-.3-2.2-.6-3.2a7.3 7.3 0 0 0-3-4 7 7 0 0 0-3.6-1h-4zm0 20.8V44c1.4 0 3 0 4.5-.2 2 0 3.9-.7 5.3-2.1a10 10 0 0 0 2.3-4.3c.4-.8.3-1.7.3-2.6V31a11 11 0 0 0-2.5-6.5 6.5 6.5 0 0 0-3.5-2.2c-2-.7-4.3-.4-6.5-.4zM80.8 1.1A5 5 0 0 1 85 2c1 .7 1.5 2 1.9 3.1.5 2-.6 4.3-2.4 5.3-.9.6-2 .6-2.9.6a4.6 4.6 0 0 1-4.3-3.1c-.6-1.4-.2-3 .3-4.4.7-1.2 1.9-2 3.2-2.4zM48.2 16.5c1.6 0 3.2-.5 4.5-1.5l.1 6.3c.5-.4.7-1 1-1.6a9 9 0 0 1 3.4-3.4 7.2 7.2 0 0 1 5.5-.6c2 .4 3.4 2.5 3.3 4.6 0 1.1-.5 2.2-1.1 3.1-.9 1-2.2 1.7-3.5 1.6a4 4 0 0 1-4-2.3 5 5 0 0 1-.2-3c.1-1 .6-1.7 1-2.6a8 8 0 0 0-4.7 5.1 16 16 0 0 0-.6 6.6v14.8h5.7V45H40v-1.4h4.3v-26H40v-1h8.1zM82 16.1c1.2-.1 2-.8 3-1.1l-8 25.2c-.2.6-.4 1.3-.2 1.9.5.9 1.8.7 2.6.2 1.7-1.3 3-3 4.2-4.8.3.2.7.3 1 .6a14.9 14.9 0 0 1-6.7 6.5c-1.1.6-2.5.4-3.8.4-1.8 0-3.5-1-4.4-2.5a6 6 0 0 1-.7-3.2c0-1.8.8-3.5 1.3-5.2 2-5.5 3.7-11 5.4-16.5l-4-.1c0-.4.2-.7.3-1 3.4-.3 6.8.1 10-.4z"/><path d="M100.3,16.1A15,15,0,0,1,109.3,17.92C110.7,18.54,112,19.42,113,20.6C113.6,21.5,114.4,22.3,115,23.3C116.8,26.42,117.4,30.3,116.7,33.8A12,12,0,0,1,115.7,37.54A15.1,15.1,0,0,1,89.7,39.39A15,15,0,0,1,100.4,16.09M100.5,17.3C99.5,17.6,98.5,18.3,97.9,19.3C97.2,20.42,96.9,21.8,96.8,23.2V37.6C96.8,39.34,97.1,41,97.8,42.6A4.1,4.1,0,0,0,101.6,44.84C102.9,44.84,104.3,44.84,105.3,43.84A7.9,7.9,0,0,0,107.3,38.46V26.46C107.3,24.76,107.4,23.07,106.9,21.34A5.5,5.5,0,0,0,104.9,17.96C103.6,17.07,101.9,17.15,100.5,17.34Z"/></g></svg>