<svg xmlns="http://www.w3.org/2000/svg" viewBox="0 0 154 64" width="154" height="64"><path fill="#1F61DC" d="M136.4 0h4c0 2.8 1 5.6 2.6 7.9a3 3 0 0 1 3-2.6 3 3 0 0 1 3.1 3.2c0 1.3-1 2.6-2.2 3 2 1.3 4.6 2 7.1 2v4.1c-3 0-5.7.9-8 2.5 1.3 0 2.5.8 3 2 .4 1.2.1 2.5-.8 3.4-1 1-2.8 1.1-4 .3a3.3 3.3 0 0 1-1.3-2.5c-1.6 2.2-2.4 5-2.4 7.7h-4.1c0-2.5-.7-5-2-7.2-.3 1-1 2-2 2.4a3.1 3.1 0 0 1-3.7-4.7c.5-.8 1.4-1.2 2.2-1.4a13.6 13.6 0 0 0-7.9-2.5v-4.2c2.6 0 5-.7 7.2-2-1-.5-1.9-1.5-2-2.6-.1-1 .3-2.1 1.1-2.8 1-.8 2.5-.9 3.6-.2.6.3 1 1 1.3 1.6a13 13 0 0 0 2.2-7.4zm2 8.2a17.5 17.5 0 0 1-5.7 6.3c-.5.4-1 .8-1.7 1a17 17 0 0 1 7.4 7.4 18 18 0 0 1 7.4-7.4 17.5 17.5 0 0 1-7.3-7.3M5.9 18.8A16 16 0 0 1 22 17.6V25a9.7 9.7 0 0 0-5-2.8c-2.7-.5-5.6.1-7.5 2a8.9 8.9 0 0 0-1 11.6 8.8 8.8 0 0 0 7.6 3.2 9.7 9.7 0 0 0 5.9-3v7.5c-1.8.8-3.6 1.4-5.6 1.5A18 18 0 0 1 8 43.4 14.1 14.1 0 0 1 1.1 36a15 15 0 0 1-.6-9.2 14 14 0 0 1 5.4-8M38 26h6v10.6c0 1.3 0 2.6-.6 3.8-.6 1.6-2 2.9-3.6 3.6-1.7.8-3.7 1-5.6 1-2.1 0-4.2-.4-6-1.5a6.5 6.5 0 0 1-3-4L25 37V26h6v10.3c0 1 .2 2 .9 2.7.8.8 2 1 3 1 1-.2 2-.6 2.5-1.4.6-.9.6-2 .6-3V26m10-11h6v30h-6V15m10.1 5h6.1v6H68v5h-3.8v14h-6V31H56v-5l2.1.1V20M70 26h6v10.4c0 1 .3 2.1 1.1 2.8a4 4 0 0 0 5-.3c.7-.6.9-1.6.9-2.5V26h6v11.6c0 1.8-.6 3.6-2 4.9-2 2-5 2.5-7.7 2.5-2.6 0-5.5-.5-7.4-2.5a6.6 6.6 0 0 1-1.9-4.7V26m32.2.2a7 7 0 0 1 3.8.1l-.4 5.6a6 6 0 0 0-4-.5 4.2 4.2 0 0 0-2.6 2.1 8.3 8.3 0 0 0-.8 3.9V45H92V26.5h6.2v2.8a6.3 6.3 0 0 1 4-3.1m5 2.2a9 9 0 0 1 6.2-3.3 12 12 0 0 1 6.5 1c2.1 1 3.7 2.8 4.4 5 .6 1.6.7 3.3.7 5h-13.9c0 1.4.6 3 1.8 3.7 1.3.7 2.8.7 4.1.4 1-.3 1.6-1 2-2l5.7.7a8.4 8.4 0 0 1-4.4 5.2c-2 .8-4 1-6.1.9-1.8-.1-3.6-.6-5.1-1.6a9.6 9.6 0 0 1-3.9-6 11 11 0 0 1 2-9zm5.6 1.7c-.8.6-1.3 1.4-1.5 2.3h8.1c-.3-1-.8-2-1.7-2.5-1.4-1-3.5-1-5 .2M0 48h1v16H0V48m6.7 6.2c1.2-.4 2.7-.2 3.6.8.6.7.7 1.6.7 2.4V64h-1v-6.4c0-.8-.1-1.7-.7-2.2-1.1-.9-3-.5-3.7.7-.7 1.1-.6 2.5-.6 3.7V64H4v-9.8h1v1.5a3 3 0 0 1 1.7-1.5m8.2.3c1.4-1 3.8-.5 4.5 1l-.9.5a2 2 0 0 0-2.6-.9c-1 .4-1.3 1.6-.5 2.2 1.1.9 2.7.9 3.8 1.8 1 .9 1 2.4.4 3.4-.9 1.5-3 1.8-4.6 1.2-1-.4-1.7-1.3-2-2.2l1-.3c.3 1 1.3 1.9 2.5 1.9 1 0 2-.6 2.3-1.5.2-.6 0-1.4-.5-1.8-1.1-.8-2.7-1-3.7-1.8-1.1-1-.9-2.7.3-3.5M22 54h1v6.5c0 .8.3 1.8 1.1 2.2a3 3 0 0 0 2.6.1c1-.4 1.3-1.5 1.3-2.5V54h1v5.7c0 1 0 2-.5 2.8-.5.9-1.5 1.4-2.5 1.5-1.1.1-2.5-.2-3.2-1.1a4 4 0 0 1-.8-2.6V54m12 .3c.5-.4 1.3-.4 2 0l-.5.8c-.6-.3-1.5-.2-2 .5-.5.8-.5 1.8-.6 2.7V64H32v-9.8h1v1.2c.2-.5.5-.9 1-1.1m3.9 1.7c1.4-2.1 4.7-2.6 6.9-1.2.4.2.8.6 1.1 1v-1.6h1l.1 9.6h-1V62a5.3 5.3 0 0 1-7 1c-2.3-1.7-2.5-5-1.1-7.1zm3-1a3.8 3.8 0 0 0-2.6 2.5 4.4 4.4 0 0 0 1.2 4.7c1.5 1.3 4.2 1.2 5.5-.4a4.4 4.4 0 0 0-.2-5.8c-1-1-2.5-1.3-3.8-1m11.7-.8c1.2-.4 2.8-.2 3.6.9.6.7.7 1.6.7 2.5V64h-1v-6.3c0-.6 0-1.4-.4-2-.8-1-2.5-1-3.5-.2-.9.7-1.1 2-1.1 3.1V64h-1v-9.8h1v1.4a4 4 0 0 1 1.7-1.4m7 1a6 6 0 0 1 7.2 0v1.3a5.2 5.2 0 0 0-2.7-1.5c-1.4-.3-3 .1-4 1.1a4.1 4.1 0 0 0 0 5.6 4.4 4.4 0 0 0 4.7 1 7 7 0 0 0 2.1-1.3v1.3a6 6 0 0 1-4.4 1.3 5 5 0 0 1-4-2.6c-1-2-.7-4.7 1.1-6.2m10.5.4A5.3 5.3 0 0 1 77 55a5 5 0 0 1 1.9 4.2H70c0 1 .4 2 1.2 2.8 1 1 2.8 1.5 4.3 1a4 4 0 0 0 2.2-2l1 .5a4.9 4.9 0 0 1-3.4 2.5 6 6 0 0 1-3.9-.5c-1.2-.6-2-1.8-2.3-3a5.3 5.3 0 0 1 1-4.8zm1.4.1c-.8.7-1.2 1.6-1.4 2.5h7.7c-.2-1.3-1-2.5-2.4-3a4 4 0 0 0-3.9.5M87 49.3c1.2-1.4 3.3-1.6 5-1 1 .4 1.7 1.1 2.2 2l-.8.6c-.5-.7-1-1.4-1.9-1.7a3.2 3.2 0 0 0-3.6.7c-.8.8-1 2.3-.4 3.3.7.9 1.9 1.3 2.9 1.8 1.4.7 3 1.2 4 2.5 1 1.4.7 3.4-.4 4.6a5.5 5.5 0 0 1-6.3 1.5 5.4 5.4 0 0 1-2.7-3c.3 0 .6-.2 1-.4.4.9 1 1.8 1.8 2.3 1.5.9 3.6.7 4.9-.5 1-1 1.5-2.6.8-3.8-.7-1.1-2.1-1.5-3.3-2.1-1.2-.7-2.6-1-3.5-2.1a3.6 3.6 0 0 1 .3-4.7m10.5 6.2c1.6-1.7 4.7-2 6.7-.6a5 5 0 0 1 2 4.2h-8.9c0 1.2.6 2.5 1.7 3.2 1.1.8 2.8 1 4 .4 1-.4 1.6-1 2-1.8l1 .5c-.6.8-1.3 1.6-2.3 2a6 6 0 0 1-4.7.1 4.6 4.6 0 0 1-2.7-3.2c-.3-1.7 0-3.5 1.2-4.8zm1.3.2a4 4 0 0 0-1.4 2.5h7.7a3.8 3.8 0 0 0-2-2.8 4 4 0 0 0-4.3.3m11.3-1.5c.6-.3 1.4-.2 2 0l-.5 1c-.6-.4-1.3-.3-1.8.2-.6.7-.7 1.7-.8 2.7V64h-.9v-9.8h1v1.1c.2-.4.5-.9 1-1m2.9-.3h1.2l3.8 7.7 3.8-7.7h1.2l-5 10-5-10m11.2-4c.7-.2 1.5.6 1.2 1.3 0 .7-1.2 1-1.6.4-.5-.5-.3-1.5.4-1.7zm-.2 4h1v10h-1V54m4 1a6 6 0 0 1 6.8.2c.2.4 0 .9 0 1.3a5.1 5.1 0 0 0-2.5-1.5c-1.3-.3-2.8 0-3.9 1a4.1 4.1 0 0 0-.3 5.7c1 1.2 2.8 1.7 4.4 1.2 1-.3 1.8-.8 2.5-1.5v1.3c-.9.7-1.9 1.1-3 1.3a6 6 0 0 1-4.3-1.2 5 5 0 0 1 .3-7.8m9 .8a5.3 5.3 0 0 1 5.4-1.6c1.4.3 2.6 1.4 3.1 2.6.3.7.4 1.5.5 2.3h-9c.1 1 .4 1.9 1 2.6a4.3 4.3 0 0 0 4.8 1c1-.3 1.6-1 2-1.8l.9.5a5 5 0 0 1-3 2.4 6 6 0 0 1-4.5-.6c-1.2-.7-2-2-2.1-3.2-.2-1.4 0-3 1-4.2zm2-.3c-1 .6-1.6 1.6-1.8 2.7h7.7a3.7 3.7 0 0 0-2.1-2.9 4 4 0 0 0-3.9.2m9.8-.9c1.4-1 4-.7 4.7 1l-.9.4a2 2 0 0 0-2.5-1c-1 .4-1.4 1.6-.7 2.3.8.6 1.9.8 2.8 1.2.8.3 1.6 1 1.8 1.8.2 1 0 2.1-.8 2.8a4.1 4.1 0 0 1-5.3-.2c-.4-.4-.6-1-.8-1.4l1-.3c.2.6.6 1.2 1.3 1.6 1 .5 2.5.3 3.2-.6.5-.7.6-1.8-.2-2.4-1.1-.8-2.7-1-3.8-1.9-1-.9-.8-2.5.2-3.3"/></svg>