<svg xmlns="http://www.w3.org/2000/svg" viewBox="0 0 169 30"><path fill="#1F61DC" d="M158,8.28a20.26,20.26,0,0,1,0.15,2.84v18.8h1.81v-7.79a4.4,4.4,0,0,0,3.87,2.15c1.76,0,3.04,-0.63,3.82,-1.88c0.79,-1.26,1.18,-3.35,1.18,-6.27c0,-2.89,-0.4,-4.98,-1.18,-6.27c-0.8,-1.28,-2.07,-1.93,-3.82,-1.93a4.4,4.4,0,0,0,-2.21,0.54a4.8,4.8,0,0,0,-1.66,1.66l-0.17,-1.85h-1.8zm8.18,12.96c-0.5,0.97,-1.4,1.46,-2.67,1.46a2.75,2.75,0,0,1,-2.65,-1.6c-0.54,-1.06,-0.8,-2.86,-0.8,-5.38c0,-2.1,0.28,-3.65,0.86,-4.65c0.58,-1,1.47,-1.5,2.68,-1.5c1.18,0,2.04,0.47,2.55,1.42c0.52,0.94,0.78,2.51,0.78,4.7c0,2.73,-0.25,4.58,-0.75,5.55zm-13.24,-3.84c0,1.72,-0.31,3.03,-0.92,3.93c-0.62,0.9,-1.5,1.36,-2.66,1.36c-0.93,0,-1.62,-0.28,-2.05,-0.84c-0.44,-0.56,-0.66,-1.44,-0.66,-2.63v-10.94h-1.87v11.7c0,1.36,0.36,2.43,1.07,3.21c0.72,0.78,1.7,1.17,2.98,1.17c0.87,0,1.65,-0.19,2.35,-0.57c0.7,-0.37,1.28,-0.93,1.76,-1.66l0.13,1.85h1.89a101.57,101.57,0,0,1,-0.15,-2.19v-13.49h-1.87v9.12zm-18.96,3.91c-0.53,-0.96,-0.8,-2.69,-0.8,-5.19c0,-2.47,0.27,-4.2,0.8,-5.17c0.55,-0.97,1.46,-1.45,2.76,-1.45c1.31,0,2.23,0.49,2.76,1.48c0.52,0.98,0.79,2.84,0.79,5.55c0,2.26,-0.28,3.86,-0.82,4.8c-0.55,0.95,-1.46,1.42,-2.73,1.42c-1.3,0,-2.23,-0.48,-2.76,-1.44zm-1.45,1.16c0.85,1.25,2.26,1.88,4.24,1.88c1.97,0,3.37,-0.61,4.2,-1.83c0.84,-1.22,1.25,-3.36,1.25,-6.4c0,-3.01,-0.42,-5.14,-1.26,-6.37c-0.84,-1.24,-2.25,-1.86,-4.22,-1.86c-1.98,0,-3.39,0.62,-4.23,1.86c-0.84,1.23,-1.26,3.36,-1.26,6.37c0,2.98,0.42,5.1,1.28,6.35zm-6.98,1.5v-10.02c0,-1.39,0.34,-2.47,1.03,-3.25a3.63,3.63,0,0,1,2.86,-1.16h0.4v-1.64h-0.37c-0.84,0,-1.58,0.2,-2.23,0.6c-0.65,0.4,-1.23,1,-1.72,1.81l-0.2,-2.24h-1.96c0.09,0.48,0.15,0.9,0.2,1.27c0.03,0.36,0.06,0.69,0.06,0.97v13.67h1.93zm-7.57,-2.06c-0.77,0.24,-1.48,0.42,-2.13,0.54c-0.66,0.12,-1.25,0.17,-1.8,0.17c-0.84,0,-1.57,-0.14,-2.2,-0.42a3.75,3.75,0,0,1,-1.54,-1.27a6.14,6.14,0,0,1,-0.92,-2.62c-0.17,-1.13,-0.26,-3,-0.26,-5.6c0,-2.58,0.09,-4.44,0.26,-5.58c0.18,-1.14,0.49,-2.02,0.92,-2.64a3.6,3.6,0,0,1,1.5,-1.26a5.19,5.19,0,0,1,2.17,-0.42c1.48,0,2.57,0.34,3.25,1.02c0.69,0.68,1.03,1.76,1.03,3.22h1.93v-0.33c0,-1.9,-0.52,-3.3,-1.56,-4.22c-1.04,-0.92,-2.63,-1.38,-4.77,-1.38c-1.17,0,-2.17,0.17,-3.01,0.5c-0.85,0.32,-1.55,0.81,-2.1,1.47a7.16,7.16,0,0,0,-1.37,3.12c-0.26,1.29,-0.4,3.39,-0.4,6.32c0,3.12,0.12,5.34,0.37,6.65a6.9,6.9,0,0,0,1.27,3.07c0.55,0.68,1.25,1.2,2.11,1.57c0.86,0.36,1.82,0.54,2.89,0.54c0.95,0,1.96,-0.09,3.03,-0.25c1.07,-0.17,2.2,-0.42,3.39,-0.76v-11.22h-6.48v1.62h4.42v8.17M101.64 22.25a6.09 6.09 0 0 1-1.37.2c-.72 0-1.22-.16-1.48-.46-.26-.31-.4-1-.4-2.08V9.86h3.25v-1.5h-3.25V4.12l-1.87.92v3.34h-2.45v1.5h2.45v10.22c0 1.66.22 2.74.65 3.23.43.5 1.24.74 2.44.74.62 0 1.06 0 1.33-.02l.7-.07v-1.72zm-8.8 0a6.1 6.1 0 0 1-1.37.2c-.72 0-1.21-.16-1.48-.46-.26-.31-.4-1-.4-2.08V9.86h3.25v-1.5H89.6V4.12l-1.87.92v3.34h-2.46v1.5h2.46v10.22c0 1.66.21 2.74.64 3.23.43.5 1.25.74 2.44.74.62 0 1.07 0 1.34-.02.26-.02.5-.04.69-.07v-1.72zm-11.81 1.81h2.02V8.36h-2.02v15.7zm-6.77 0l4.55-15.7h-1.83L73.69 19.8c-.17.67-.3 1.18-.37 1.51-.08.34-.13.65-.18.94a15.2 15.2 0 0 0-.5-2.48l-3.2-11.4h-2.15l4.76 15.7h2.2zm-8.44 0a26.8 26.8 0 0 1-.18-2.87v-8.64c0-1.57-.4-2.72-1.18-3.46-.78-.73-2.01-1.1-3.69-1.1-1.68 0-2.96.35-3.82 1.05-.86.7-1.3 1.74-1.3 3.11l1.91-.01c.02-.89.27-1.55.74-1.99.47-.43 1.18-.65 2.14-.65 1.15 0 1.99.24 2.5.72.51.49.77 1.3.77 2.42v1.73l-1.66.06c-2.35.08-4.1.54-5.23 1.37-1.13.82-1.7 2.07-1.7 3.73 0 1.4.39 2.53 1.15 3.38a3.89 3.89 0 0 0 3.04 1.27 5.62 5.62 0 0 0 4.58-2.27l.18 2.15h1.75zm-2.11-6.5c0 1.68-.34 2.95-1.03 3.82-.68.87-1.69 1.3-3 1.3-.85 0-1.5-.27-2-.83a3.44 3.44 0 0 1-.71-2.32c0-1.39.47-2.35 1.4-2.89.94-.54 2.72-.82 5.32-.84l.02 1.76zM51.08 19.3c0 1.17-.28 2.05-.86 2.64-.57.6-1.42.89-2.56.89-1.23 0-2.13-.4-2.7-1.2-.58-.8-.86-2.06-.86-3.78v-1.34h9v-2.49c0-1.93-.45-3.42-1.38-4.47a4.97 4.97 0 0 0-3.94-1.57c-.9 0-1.72.14-2.45.44a4.61 4.61 0 0 0-2.85 3.4c-.21.85-.31 2.16-.31 3.94 0 3.34.4 5.62 1.24 6.84.82 1.22 2.28 1.83 4.37 1.83 1.7 0 3-.42 3.87-1.27.88-.85 1.37-2.14 1.46-3.86h-2.03zm-6.95-4.88c0-1.65.3-2.87.89-3.66.6-.79 1.5-1.18 2.73-1.18 1.2 0 2.07.37 2.63 1.11.55.75.83 1.93.83 3.55v.68h-7.08v-.5zm-2.69 9.63v-1.75h-7.47V1.54H31.9v22.52h9.53M82.04 5.89a1.15 1.15 0 1 0 0-2.3 1.15 1.15 0 0 0 0 2.3M14.89 2.5c.64-1.23.02-2.24-1.36-2.25h-11A2.54 2.54 0 0 0 0 2.8V23.4c0 1.4.62 2.53 1.38 2.53.77 0 1.91-1.01 2.55-2.25L14.9 2.51M11.3 19.67c-.65 1.24-.03 2.24 1.36 2.24h9.7a2.53 2.53 0 0 0 2.53-2.52V4.3c0-1.4-.98-2.53-2.17-2.53-1.2 0-2.7 1-3.34 2.24L11.3 19.67"/></svg>