<svg xmlns="http://www.w3.org/2000/svg" viewBox="0 0 163 42" width="163" height="42"><g fill="#1F61DC"><path d="M19.6 0h2c2.4.2 4.7.6 6.9 1.6l.8.2h-.1c2 1 3.7 2.2 5.3 3.6-2.5 5.9-5.3 11.7-8.8 17.1-1.2 1.7-2.2 3.7-4 5-.3 0-.2-.6-.2-.9 2-3.6 3.5-7.4 4.5-11.4.1-.8.3-1.5 0-2.3a2.3 2.3 0 0 0-2-1.5c-.9 0-1.5.8-2 1.4-.4.7-1 1.3-1.6 2-2.2 3.4-4.3 7-6.7 10.4-1 1.4-1.9 3-3.5 3.6 2.3-4 4-8.3 6-12.5 1-2.5 2.2-5 2.4-7.8 0-.8 0-1.6-.2-2.3-.4-.8-1.6-1-2.3-.5-.5.4-.5 1-.4 1.7a9 9 0 0 1-.4 3.2C13 18.8 9.1 26.6 5 34 2 30.6.3 26.2 0 21.7v-2A20.7 20.7 0 0 1 19.6 0M50.8 1h.4v39.2h-.4V1"/><path d="M35.5 8.7l.7-1.5a21 21 0 0 1 2 24 20.7 20.7 0 0 1-31 5c2.7-2.9 5.3-6 7.7-9.2l7.8-11.1c.1.9 0 1.8-.3 2.7-2 5-4 10-7 14.6-.4.6-.8 1.4-.5 2 .4 1 1.7 1.5 2.6.8 2.2-2 4-4.4 6-6.9 4.7-6.3 8.8-13.2 12-20.4M88.8 7.9h.7L96 24.2a84.6 84.6 0 0 1-.7.4c-.8-1.5-1.3-3-2-4.5H85l-1.7 4.4-.8-.4L88.8 8m0 2.2c-1 3-2.3 6-3.5 9.1H93l-3.8-9.7-.3.6M123.7 7.9l.7.5-6.3 7.4c2.4 2.9 4.7 5.8 7.3 8.5h-1.2l-2.3-2.6-4.4-5.2c-1 1.4-2.3 2.6-3.3 4v3.8h-.9V8.1h.9V19c1.9-2 3.6-4.3 5.5-6.4l4-4.7M134.5 7.9h1c.5 1 1.1 1.8 1.7 2.7l8.3 12.3V8.1h1v16.4c-.4 0-.9.2-1-.2L135.2 9.5v14.8h-.8V8M153.4 8.6a8.4 8.4 0 0 1 8.7 1.3l-.5.6a7.7 7.7 0 0 0-5.6-1.7c-1 0-2.2.4-3 1-.7.6-1.2 1.4-1 2.3.1 1 1 1.5 1.7 2 2.3 1 5 1.4 7.1 2.6 1 .5 1.7 1.3 2 2.3v2c-.4 1.4-1.6 2.3-2.9 2.9a9.3 9.3 0 0 1-9.7-1.8l.6-.7c1.6 1.6 4 2.3 6.2 2.2 1.6 0 3.3-.6 4.4-1.8.6-.7.9-1.7.6-2.5-.2-.8-.9-1.4-1.5-1.8-2.5-1.4-5.5-1.6-8-3.1a3 3 0 0 1-1.4-2.8c0-1.4 1.1-2.4 2.3-3M59.9 8.3l.7-.3c.3.2.3.5.4.8l5.3 14 4.2-13.3h.8L75.6 23l5.5-15 .9.3-6 16.3h-.7L71 11.3a1 1 0 0 0-.1-.4l-4.1 13-.3.6H66l-6-16.2M129 8.1h.9v16.2h-.8V8.1M96.8 8c4.3.1 8.5 0 12.8 0v1h-6v15.3h-.9V9h-5.9V8M65 30.6h1.2v5.2H65v-5.2M69.5 30.6h1l2.4 3v-3h1.2v5.2H73l-2.4-3v3h-1.1v-5.2M78.1 30.8c.8-.4 1.6-.3 2.3.1l-.4 1c-.3-.1-.6-.3-1-.2-.3 0-.6.4-.3.7.4.2 1 .2 1.3.5 1 .7.7 2.4-.4 2.8-.9.4-1.9 0-2.6-.5l.6-.9c.4.2.9.6 1.4.4.4 0 .5-.7.1-1-.4-.2-1-.2-1.4-.6-.7-.7-.4-2 .4-2.3M83.5 30.6h1.2V34c0 .5.5.8.9.6.3 0 .4-.4.4-.7v-3.4h1.2v4c-.3 1.3-2 1.6-3 1-.5-.3-.7-.9-.7-1.4v-3.6M90.3 30.6c.8 0 1.7-.1 2.4.1 1.3.5 1.2 2.6 0 3.1l1.2 2h-1.3L91.5 34v2h-1.2v-5.3m1.2 1.1v1c.4 0 1 .1 1-.5s-.6-.5-1-.5M98.1 30.6h1.3c.6 1.7 1 3.5 1.5 5.2h-1.1l-.2-.7H98l-.2.7h-1.2c.6-1.7 1-3.5 1.5-5.2m.3 3.3h.8c0-.5-.2-1-.4-1.6l-.4 1.6M103.9 30.6h1l2.4 3v-3h1.2v5.2h-1.2l-2.3-3v3H104v-5.2M112.4 31.1c.7-.7 2-.7 2.8-.3v1.4c-.5-.4-1.3-.5-1.9-.1-.7.5-.7 1.8 0 2.3.6.3 1.4.2 2-.1l-.1 1.4c-1 .4-2.1.3-2.8-.4a3 3 0 0 1 0-4.2M118.4 30.6h2.5v1.1h-1.4v1h1.4v1h-1.4v1h1.4v1.1h-2.5v-5.2M128.9 32c.4-1.1 1.7-1.7 2.9-1.4.5.2 1 .6 1.2 1l-.9.7c-.4-.4-1-.7-1.6-.4-1 .5-1 2 0 2.6.5.4 1.4 0 1.7-.6h-1v-1h2.3c.2 1.6-1.2 3.3-2.8 3-1.8-.2-2.7-2.5-1.8-4M136.4 30.6h2.4c1.3.5 1.3 2.7 0 3.2l1.2 2h-1.3l-1.1-1.8v1.8h-1.2v-5.2m1.2 1.1v1c.4.1 1 .1 1-.5s-.6-.5-1-.5M144.5 30.6c1-.3 2.1.2 2.7 1.1.8 1.3.3 3.3-1 4-1.2.6-2.7 0-3.3-1.2-.7-1.4 0-3.4 1.6-3.9m.1 1.3c-1 .4-1.1 2-.1 2.6.8.6 2-.3 2-1.3s-1-1.7-1.9-1.3M150.5 30.6h1.2v3.6c0 .6.8.6 1.2.4l.1-.8v-3.2h1.2v4c-.4 1.4-2.3 1.6-3.2.8-.4-.4-.5-1-.5-1.4v-3.4M157.3 30.6h2.2c1.3.4 1.5 2.4.4 3-.4.3-1 .3-1.4.3v2h-1.2v-5.3m1.2 1.1v1.1c.4 0 1 0 1-.6s-.7-.5-1-.5M161.1 49.7c0-.2 0-.5.3-.5.3-.2.6.3.3.5-.1.3-.4 0-.6 0"/></g></svg>